<?xml version="1.0" standalone="no"?>
<!DOCTYPE svg PUBLIC "-//W3C//DTD SVG 1.1//EN" "http://www.w3.org/Graphics/SVG/1.1/DTD/svg11.dtd">
<svg width="20" height="50" viewBox="-1 -51 22 52" xmlns="http://www.w3.org/2000/svg" version="1.1">
<title>OpenSCAD Model</title>
<path d="
M 20,-50 L 13.1,-50 L 13.1,-35 L 6.89999,-35 L 6.89999,-50 L 0,-50
 L 0,-0 L 20,-0 z
M 9.91275,-2.50151 L 9.82561,-2.50609 L 9.73868,-2.51369 L 9.65205,-2.52432 L 9.56587,-2.53798 L 9.48021,-2.55463
 L 9.39519,-2.57425 L 9.3109,-2.59683 L 9.22745,-2.62234 L 9.14494,-2.65076 L 9.06348,-2.68204 L 8.98315,-2.71613
 L 8.90407,-2.75301 L 8.82631,-2.79262 L 8.74998,-2.83493 L 8.6752,-2.87987 L 8.60201,-2.9274 L 8.53053,-2.97745
 L 8.46085,-3.02997 L 8.39302,-3.08488 L 8.32716,-3.14214 L 8.26335,-3.20164 L 8.20164,-3.26335 L 8.14214,-3.32716
 L 8.08488,-3.39302 L 8.02997,-3.46085 L 7.97745,-3.53053 L 7.9274,-3.60201 L 7.87987,-3.6752 L 7.83493,-3.75
 L 7.79262,-3.82631 L 7.75301,-3.90407 L 7.71613,-3.98315 L 7.68204,-4.06348 L 7.65076,-4.14494 L 7.62234,-4.22745
 L 7.59683,-4.3109 L 7.57425,-4.39519 L 7.55463,-4.48021 L 7.53798,-4.56587 L 7.52432,-4.65205 L 7.51369,-4.73868
 L 7.50609,-4.82561 L 7.50151,-4.91275 L 7.5,-5 L 7.50151,-5.08723 L 7.50609,-5.17438 L 7.51369,-5.26131
 L 7.52432,-5.34793 L 7.53798,-5.43411 L 7.55463,-5.51978 L 7.57425,-5.6048 L 7.59683,-5.68909 L 7.62234,-5.77254
 L 7.65076,-5.85504 L 7.68204,-5.93651 L 7.71613,-6.01683 L 7.75301,-6.09592 L 7.79262,-6.17368 L 7.83493,-6.25
 L 7.87987,-6.32478 L 7.9274,-6.39798 L 7.97745,-6.46945 L 8.02997,-6.53914 L 8.08488,-6.60696 L 8.14214,-6.67282
 L 8.20164,-6.73663 L 8.26335,-6.79834 L 8.32716,-6.85785 L 8.39302,-6.9151 L 8.46085,-6.97002 L 8.53053,-7.02254
 L 8.60201,-7.07259 L 8.6752,-7.12012 L 8.75,-7.16505 L 8.82631,-7.20737 L 8.90407,-7.24698 L 8.98315,-7.28386
 L 9.06348,-7.31795 L 9.14494,-7.34923 L 9.22745,-7.37764 L 9.3109,-7.40315 L 9.39519,-7.42574 L 9.48021,-7.44536
 L 9.56587,-7.46201 L 9.65205,-7.47566 L 9.73868,-7.4863 L 9.82561,-7.4939 L 9.91275,-7.49847 L 10,-7.5
 L 10.0872,-7.49847 L 10.1744,-7.4939 L 10.2613,-7.4863 L 10.3479,-7.47566 L 10.4341,-7.46201 L 10.5198,-7.44536
 L 10.6048,-7.42574 L 10.6891,-7.40315 L 10.7725,-7.37764 L 10.855,-7.34923 L 10.9365,-7.31795 L 11.0168,-7.28386
 L 11.0959,-7.24698 L 11.1737,-7.20737 L 11.25,-7.16505 L 11.3248,-7.12012 L 11.398,-7.07259 L 11.4695,-7.02254
 L 11.5391,-6.97002 L 11.607,-6.9151 L 11.6728,-6.85785 L 11.7366,-6.79834 L 11.7983,-6.73663 L 11.8578,-6.67282
 L 11.9151,-6.60696 L 11.97,-6.53914 L 12.0225,-6.46945 L 12.0726,-6.39798 L 12.1201,-6.32478 L 12.1651,-6.25
 L 12.2074,-6.17368 L 12.247,-6.09592 L 12.2839,-6.01683 L 12.3179,-5.93651 L 12.3492,-5.85504 L 12.3776,-5.77254
 L 12.4032,-5.68909 L 12.4257,-5.6048 L 12.4454,-5.51978 L 12.462,-5.43411 L 12.4757,-5.34793 L 12.4863,-5.26131
 L 12.4939,-5.17438 L 12.4985,-5.08723 L 12.5,-5 L 12.4985,-4.91275 L 12.4939,-4.82561 L 12.4863,-4.73868
 L 12.4757,-4.65205 L 12.462,-4.56587 L 12.4454,-4.48021 L 12.4257,-4.39519 L 12.4032,-4.3109 L 12.3776,-4.22745
 L 12.3492,-4.14494 L 12.3179,-4.06348 L 12.2839,-3.98315 L 12.247,-3.90407 L 12.2074,-3.82631 L 12.1651,-3.74998
 L 12.1201,-3.6752 L 12.0726,-3.60201 L 12.0225,-3.53053 L 11.97,-3.46085 L 11.9151,-3.39302 L 11.8578,-3.32716
 L 11.7983,-3.26335 L 11.7366,-3.20164 L 11.6728,-3.14214 L 11.607,-3.08488 L 11.5391,-3.02997 L 11.4695,-2.97745
 L 11.398,-2.9274 L 11.3248,-2.87987 L 11.25,-2.83493 L 11.1737,-2.79262 L 11.0959,-2.75301 L 11.0168,-2.71613
 L 10.9365,-2.68204 L 10.855,-2.65076 L 10.7725,-2.62234 L 10.6891,-2.59683 L 10.6048,-2.57425 L 10.5198,-2.55463
 L 10.4341,-2.53798 L 10.3479,-2.52432 L 10.2613,-2.51369 L 10.1744,-2.50609 L 10.0872,-2.50151 L 10,-2.5
 z
" stroke="black" fill="lightgray" stroke-width="0.5"/></svg>
