<?xml version="1.0" standalone="no"?>
<!DOCTYPE svg PUBLIC "-//W3C//DTD SVG 1.1//EN" "http://www.w3.org/Graphics/SVG/1.1/DTD/svg11.dtd">
<svg width="62" height="31" viewBox="-1 -32 64 33" xmlns="http://www.w3.org/2000/svg" version="1.1">
<title>OpenSCAD Model</title>
<path d="
M 62,-31 L 52,-31 L 52,-16 L 46,-10 L 16,-10 L 10,-16
 L 10,-31 L 0,-31 L 0,-0 L 62,-0 z
M 57,-14.4 L 56.8884,-14.4039 L 56.7773,-14.4156 L 56.6673,-14.435 L 56.559,-14.462 L 56.4528,-14.4965
 L 56.3492,-14.5383 L 56.2488,-14.5873 L 56.1521,-14.6431 L 56.0595,-14.7056 L 55.9715,-14.7743 L 55.8885,-14.849
 L 55.811,-14.9294 L 55.7392,-15.0149 L 55.6735,-15.1053 L 55.6143,-15.2 L 55.5619,-15.2986 L 55.5165,-15.4006
 L 55.4783,-15.5056 L 55.4475,-15.6129 L 55.4243,-15.7222 L 55.4088,-15.8327 L 55.401,-15.9442 L 55.401,-16.0558
 L 55.4088,-16.1672 L 55.4243,-16.2778 L 55.4475,-16.3871 L 55.4783,-16.4944 L 55.5165,-16.5994 L 55.5619,-16.7014
 L 55.6143,-16.8 L 55.6735,-16.8947 L 55.7392,-16.985 L 55.811,-17.0706 L 55.8885,-17.1509 L 55.9715,-17.2257
 L 56.0595,-17.2944 L 56.1521,-17.3569 L 56.2488,-17.4127 L 56.3492,-17.4617 L 56.4528,-17.5035 L 56.559,-17.538
 L 56.6673,-17.565 L 56.7773,-17.5844 L 56.8884,-17.5961 L 57,-17.6 L 57.1116,-17.5961 L 57.2227,-17.5844
 L 57.3327,-17.565 L 57.441,-17.538 L 57.5472,-17.5035 L 57.6508,-17.4617 L 57.7511,-17.4127 L 57.8479,-17.3569
 L 57.9404,-17.2944 L 58.0285,-17.2257 L 58.1115,-17.1509 L 58.189,-17.0706 L 58.2608,-16.985 L 58.3264,-16.8947
 L 58.3856,-16.8 L 58.4381,-16.7014 L 58.4835,-16.5994 L 58.5217,-16.4944 L 58.5525,-16.3871 L 58.5757,-16.2778
 L 58.5912,-16.1672 L 58.599,-16.0558 L 58.599,-15.9442 L 58.5912,-15.8327 L 58.5757,-15.7222 L 58.5525,-15.6129
 L 58.5217,-15.5056 L 58.4835,-15.4006 L 58.4381,-15.2986 L 58.3856,-15.2 L 58.3264,-15.1053 L 58.2608,-15.0149
 L 58.189,-14.9294 L 58.1115,-14.849 L 58.0285,-14.7743 L 57.9404,-14.7056 L 57.8479,-14.6431 L 57.7511,-14.5873
 L 57.6508,-14.5383 L 57.5472,-14.4965 L 57.441,-14.462 L 57.3327,-14.435 L 57.2227,-14.4156 L 57.1116,-14.4039
 z
M 5,-14.4 L 4.88838,-14.4039 L 4.77731,-14.4156 L 4.66733,-14.435 L 4.55898,-14.462 L 4.45276,-14.4965
 L 4.34921,-14.5383 L 4.24884,-14.5873 L 4.15211,-14.6431 L 4.05954,-14.7056 L 3.97153,-14.7743 L 3.88853,-14.849
 L 3.81096,-14.9294 L 3.73918,-15.0149 L 3.67354,-15.1053 L 3.61435,-15.2 L 3.56192,-15.2986 L 3.51649,-15.4006
 L 3.4783,-15.5056 L 3.44753,-15.6129 L 3.4243,-15.7222 L 3.40875,-15.8327 L 3.40097,-15.9442 L 3.40097,-16.0558
 L 3.40875,-16.1672 L 3.4243,-16.2778 L 3.44753,-16.3871 L 3.4783,-16.4944 L 3.51649,-16.5994 L 3.56192,-16.7014
 L 3.61435,-16.8 L 3.67354,-16.8947 L 3.73918,-16.985 L 3.81096,-17.0706 L 3.88853,-17.1509 L 3.97153,-17.2257
 L 4.05954,-17.2944 L 4.15211,-17.3569 L 4.24884,-17.4127 L 4.34921,-17.4617 L 4.45276,-17.5035 L 4.55898,-17.538
 L 4.66733,-17.565 L 4.77731,-17.5844 L 4.88838,-17.5961 L 5,-17.6 L 5.1116,-17.5961 L 5.22267,-17.5844
 L 5.33266,-17.565 L 5.44101,-17.538 L 5.54723,-17.5035 L 5.65077,-17.4617 L 5.75114,-17.4127 L 5.84787,-17.3569
 L 5.94044,-17.2944 L 6.02846,-17.2257 L 6.11145,-17.1509 L 6.18903,-17.0706 L 6.2608,-16.985 L 6.32645,-16.8947
 L 6.38564,-16.8 L 6.43806,-16.7014 L 6.48349,-16.5994 L 6.52168,-16.4944 L 6.55246,-16.3871 L 6.57568,-16.2778
 L 6.59123,-16.1672 L 6.59901,-16.0558 L 6.59901,-15.9442 L 6.59123,-15.8327 L 6.57568,-15.7222 L 6.55246,-15.6129
 L 6.52168,-15.5056 L 6.48349,-15.4006 L 6.43806,-15.2986 L 6.38564,-15.2 L 6.32645,-15.1053 L 6.2608,-15.0149
 L 6.18903,-14.9294 L 6.11145,-14.849 L 6.02846,-14.7743 L 5.94044,-14.7056 L 5.84787,-14.6431 L 5.75114,-14.5873
 L 5.65077,-14.5383 L 5.54723,-14.4965 L 5.44101,-14.462 L 5.33266,-14.435 L 5.22267,-14.4156 L 5.1116,-14.4039
 z
" stroke="black" fill="lightgray" stroke-width="0.5"/></svg>
