<?xml version="1.0" standalone="no"?>
<!DOCTYPE svg PUBLIC "-//W3C//DTD SVG 1.1//EN" "http://www.w3.org/Graphics/SVG/1.1/DTD/svg11.dtd">
<svg width="142" height="82" viewBox="-72 -42 144 84" xmlns="http://www.w3.org/2000/svg" version="1.1">
<title>OpenSCAD Model</title>
<path d="
M 35.074,-20.25 L 35.0689,-20.25 L 34.86,-20.6162 L 34.1953,-21.701 L 33.4967,-22.7644 L 32.7652,-23.8053
 L 32.0013,-24.8227 L 31.2058,-25.8157 L 30.3795,-26.7831 L 29.5232,-27.7242 L 28.6378,-28.6378 L 27.7242,-29.5232
 L 26.7831,-30.3795 L 25.8157,-31.2058 L 24.8227,-32.0013 L 23.8053,-32.7652 L 22.7644,-33.4967 L 21.701,-34.1953
 L 20.6162,-34.86 L 19.511,-35.4904 L 18.3866,-36.0858 L 17.244,-36.6455 L 16.0845,-37.1691 L 14.909,-37.6559
 L 13.7189,-38.1057 L 12.5152,-38.5178 L 11.2991,-38.8919 L 10.0719,-39.2276 L 8.83479,-39.5246 L 7.58893,-39.7826
 L 6.33559,-40.0014 L 5.07599,-40.1806 L 3.81139,-40.3203 L 2.54301,-40.4201 L 1.27213,-40.48 L 0,-40.5
 L -1.27213,-40.48 L -2.54301,-40.4201 L -3.81139,-40.3203 L -5.07599,-40.1806 L -6.33559,-40.0014 L -7.58893,-39.7826
 L -8.83479,-39.5246 L -10.0719,-39.2276 L -11.2991,-38.8919 L -12.5152,-38.5178 L -13.7189,-38.1057 L -14.909,-37.6559
 L -16.0845,-37.1691 L -17.244,-36.6455 L -18.3866,-36.0858 L -19.511,-35.4904 L -20.6162,-34.86 L -21.701,-34.1953
 L -22.7644,-33.4967 L -23.8053,-32.7652 L -24.8227,-32.0013 L -25.8157,-31.2058 L -26.7831,-30.3795 L -27.7242,-29.5232
 L -28.6378,-28.6378 L -29.5232,-27.7242 L -30.3795,-26.7831 L -31.2058,-25.8157 L -32.0013,-24.8227 L -32.7652,-23.8053
 L -33.4967,-22.7644 L -34.1953,-21.701 L -34.86,-20.6162 L -35.0689,-20.25 L -35.074,-20.25 L -70.1481,40.5
 L 70.1481,40.5 z
M -10,-14.5 L -10,-34.2 L 9.7,-34.2 L 9.7,-14.5 z
M -31.643,-4.24196 L -31.759,-4.25311 L -31.8742,-4.27034 L -31.9883,-4.29356 L -32.1011,-4.32272 L -32.2122,-4.35776
 L -32.3213,-4.39854 L -32.4281,-4.44499 L -32.5324,-4.49698 L -32.6338,-4.55434 L -32.732,-4.61693 L -32.8268,-4.68457
 L -32.918,-4.75708 L -33.0052,-4.83427 L -33.0883,-4.91592 L -33.167,-5.0018 L -33.2411,-5.09169 L -33.3104,-5.18532
 L -33.3747,-5.28246 L -33.4338,-5.38283 L -33.4876,-5.48616 L -33.5359,-5.59215 L -33.5786,-5.70053 L -33.6156,-5.811
 L -33.6467,-5.92325 L -33.6719,-6.03699 L -33.6911,-6.15187 L -33.7043,-6.26761 L -33.7114,-6.38388 L -33.7125,-6.50037
 L -33.7074,-6.61674 L -33.6962,-6.7327 L -33.679,-6.8479 L -33.6558,-6.96205 L -33.6266,-7.07483 L -33.5916,-7.18593
 L -33.5508,-7.29503 L -33.5043,-7.40186 L -33.4524,-7.5061 L -33.395,-7.6075 L -33.3324,-7.70573 L -33.2648,-7.80057
 L -33.1922,-7.89174 L -33.1151,-7.97897 L -33.0334,-8.06206 L -32.9475,-8.14076 L -32.8576,-8.21486 L -32.764,-8.28415
 L -32.6669,-8.34843 L -32.5665,-8.40756 L -32.4632,-8.46135 L -32.3572,-8.50966 L -32.2488,-8.55235 L -32.1383,-8.58931
 L -32.0261,-8.62044 L -31.9124,-8.64565 L -31.7975,-8.66487 L -31.6817,-8.67807 L -31.5654,-8.68518 L -31.449,-8.68619
 L -31.3326,-8.68111 L -31.2166,-8.66995 L -31.1014,-8.65273 L -30.9873,-8.6295 L -30.8745,-8.60034 L -30.7634,-8.56531
 L -30.6543,-8.52452 L -30.5475,-8.47807 L -30.4432,-8.42609 L -30.3418,-8.36873 L -30.2436,-8.30614 L -30.1488,-8.23849
 L -30.0576,-8.16599 L -29.9704,-8.08879 L -29.8873,-8.00714 L -29.8086,-7.92126 L -29.7345,-7.83138 L -29.6652,-7.73773
 L -29.6009,-7.64061 L -29.5418,-7.54024 L -29.488,-7.4369 L -29.4397,-7.3309 L -29.397,-7.22253 L -29.36,-7.11206
 L -29.3289,-6.9998 L -29.3037,-6.88608 L -29.2845,-6.77119 L -29.2713,-6.65546 L -29.2641,-6.53918 L -29.2631,-6.4227
 L -29.2682,-6.30632 L -29.2794,-6.19037 L -29.2966,-6.07516 L -29.3198,-5.96101 L -29.349,-5.84824 L -29.384,-5.73714
 L -29.4248,-5.62804 L -29.4713,-5.52121 L -29.5232,-5.41696 L -29.5806,-5.31557 L -29.6432,-5.21733 L -29.7108,-5.1225
 L -29.7833,-5.03133 L -29.8605,-4.94409 L -29.9422,-4.86101 L -30.0281,-4.7823 L -30.118,-4.70821 L -30.2116,-4.63892
 L -30.3087,-4.57463 L -30.4091,-4.5155 L -30.5124,-4.46172 L -30.6184,-4.41341 L -30.7268,-4.37071 L -30.8373,-4.33376
 L -30.9495,-4.30263 L -31.0632,-4.2774 L -31.1781,-4.25818 L -31.2939,-4.245 L -31.4101,-4.23788 L -31.5266,-4.23688
 z
M 31.3326,-4.24196 L 31.2166,-4.25311 L 31.1014,-4.27034 L 30.9873,-4.29356 L 30.8745,-4.32272 L 30.7634,-4.35776
 L 30.6543,-4.39854 L 30.5475,-4.44499 L 30.4432,-4.49698 L 30.3418,-4.55434 L 30.2436,-4.61693 L 30.1488,-4.68457
 L 30.0576,-4.75708 L 29.9704,-4.83427 L 29.8873,-4.91592 L 29.8086,-5.0018 L 29.7345,-5.09169 L 29.6652,-5.18532
 L 29.6009,-5.28246 L 29.5418,-5.38283 L 29.488,-5.48616 L 29.4397,-5.59215 L 29.397,-5.70053 L 29.36,-5.811
 L 29.3289,-5.92325 L 29.3037,-6.03699 L 29.2845,-6.15187 L 29.2713,-6.26761 L 29.2641,-6.38388 L 29.2631,-6.50037
 L 29.2682,-6.61674 L 29.2794,-6.7327 L 29.2966,-6.8479 L 29.3198,-6.96205 L 29.349,-7.07483 L 29.384,-7.18593
 L 29.4248,-7.29503 L 29.4713,-7.40186 L 29.5232,-7.5061 L 29.5806,-7.6075 L 29.6432,-7.70573 L 29.7108,-7.80057
 L 29.7833,-7.89174 L 29.8605,-7.97897 L 29.9422,-8.06206 L 30.0281,-8.14076 L 30.118,-8.21486 L 30.2116,-8.28415
 L 30.3087,-8.34843 L 30.4091,-8.40756 L 30.5124,-8.46135 L 30.6184,-8.50966 L 30.7268,-8.55235 L 30.8373,-8.58931
 L 30.9495,-8.62044 L 31.0632,-8.64565 L 31.1781,-8.66487 L 31.2939,-8.67807 L 31.4101,-8.68518 L 31.5266,-8.68619
 L 31.643,-8.68111 L 31.759,-8.66995 L 31.8742,-8.65273 L 31.9883,-8.6295 L 32.1011,-8.60034 L 32.2122,-8.56531
 L 32.3213,-8.52452 L 32.4281,-8.47807 L 32.5324,-8.42609 L 32.6338,-8.36873 L 32.732,-8.30614 L 32.8268,-8.23849
 L 32.918,-8.16599 L 33.0052,-8.08879 L 33.0883,-8.00714 L 33.167,-7.92126 L 33.2411,-7.83138 L 33.3104,-7.73773
 L 33.3747,-7.64061 L 33.4338,-7.54024 L 33.4876,-7.4369 L 33.5359,-7.3309 L 33.5786,-7.22253 L 33.6156,-7.11206
 L 33.6467,-6.9998 L 33.6719,-6.88608 L 33.6911,-6.77119 L 33.7043,-6.65546 L 33.7114,-6.53918 L 33.7125,-6.4227
 L 33.7074,-6.30632 L 33.6962,-6.19037 L 33.679,-6.07516 L 33.6558,-5.96101 L 33.6266,-5.84824 L 33.5916,-5.73714
 L 33.5508,-5.62804 L 33.5043,-5.52121 L 33.4524,-5.41696 L 33.395,-5.31557 L 33.3324,-5.21733 L 33.2648,-5.1225
 L 33.1922,-5.03133 L 33.1151,-4.94409 L 33.0334,-4.86101 L 32.9475,-4.7823 L 32.8576,-4.70821 L 32.764,-4.63892
 L 32.6669,-4.57463 L 32.5665,-4.5155 L 32.4632,-4.46172 L 32.3572,-4.41341 L 32.2488,-4.37071 L 32.1383,-4.33376
 L 32.0261,-4.30263 L 31.9124,-4.2774 L 31.7975,-4.25818 L 31.6817,-4.245 L 31.5654,-4.23788 L 31.449,-4.23688
 z
M -18.2912,18.4991 L -18.5005,18.4918 L -18.7095,18.4771 L -18.9177,18.4553 L -19.1251,18.4261 L -19.3314,18.3897
 L -19.5362,18.3462 L -19.7394,18.2955 L -19.9408,18.2378 L -20.1399,18.1731 L -20.3367,18.1015 L -20.5309,18.023
 L -20.7222,17.9378 L -20.9105,17.846 L -21.0954,17.7477 L -21.2768,17.643 L -21.4544,17.532 L -21.628,17.4149
 L -21.7974,17.2918 L -21.9624,17.1629 L -22.1229,17.0282 L -22.2785,16.8881 L -22.4292,16.7426 L -22.5746,16.592
 L -22.7148,16.4363 L -22.8494,16.2759 L -22.9783,16.1109 L -23.1014,15.9414 L -23.2186,15.7678 L -23.3295,15.5902
 L -23.4342,15.4088 L -23.5326,15.2239 L -23.6244,15.0357 L -23.7096,14.8444 L -23.788,14.6502 L -23.8596,14.4534
 L -23.9244,14.2542 L -23.9821,14.0529 L -24.0327,13.8497 L -24.0763,13.6448 L -24.1127,13.4386 L -24.1418,13.2312
 L -24.1637,13.0229 L -24.1783,12.814 L -24.1856,12.6047 L -24.1856,12.3953 L -24.1783,12.186 L -24.1637,11.9771
 L -24.1418,11.7688 L -24.1127,11.5614 L -24.0763,11.3551 L -24.0327,11.1503 L -23.9821,10.9471 L -23.9244,10.7458
 L -23.8596,10.5466 L -23.788,10.3498 L -23.7096,10.1556 L -23.6244,9.96428 L -23.5326,9.77605 L -23.4342,9.59114
 L -14.6693,-5.59023 L -14.5583,-5.76782 L -14.4412,-5.94145 L -14.3181,-6.11089 L -14.1891,-6.27591 L -14.0545,-6.43634
 L -13.9144,-6.59198 L -13.7689,-6.74263 L -13.6183,-6.88811 L -13.4626,-7.02824 L -13.3022,-7.16287 L -13.1371,-7.29181
 L -12.9677,-7.4149 L -12.7941,-7.53201 L -12.6165,-7.64299 L -12.4351,-7.74771 L -12.2502,-7.84604 L -12.062,-7.93784
 L -11.8706,-8.02303 L -11.6765,-8.10147 L -11.4797,-8.17311 L -11.2805,-8.23782 L -11.0792,-8.29555 L -10.876,-8.34621
 L -10.6711,-8.38976 L -10.4649,-8.42612 L -10.2575,-8.45528 L -10.0492,-8.47716 L -9.84027,-8.49178 L -9.63097,-8.49908
 L 9.63098,-8.49907 L 9.84029,-8.49176 L 10.0492,-8.47714 L 10.2575,-8.45526 L 10.4649,-8.4261 L 10.6711,-8.38974
 L 10.876,-8.34619 L 11.0792,-8.29553 L 11.2805,-8.23781 L 11.4797,-8.1731 L 11.6765,-8.10146 L 11.8707,-8.02301
 L 12.062,-7.93782 L 12.2502,-7.84602 L 12.4351,-7.7477 L 12.6165,-7.64297 L 12.7941,-7.532 L 12.9677,-7.41489
 L 13.1372,-7.29179 L 13.3022,-7.16286 L 13.4626,-7.02823 L 13.6183,-6.88809 L 13.7689,-6.74261 L 13.9144,-6.59196
 L 14.0545,-6.43633 L 14.1891,-6.27589 L 14.3181,-6.11087 L 14.4412,-5.94144 L 14.5583,-5.76781 L 14.6693,-5.59021
 L 23.3827,9.5 L 23.4842,9.68318 L 23.5793,9.86978 L 23.6678,10.0596 L 23.7496,10.2524 L 23.8247,10.4479
 L 23.8929,10.6459 L 23.9541,10.8462 L 24.0083,11.0485 L 24.0554,11.2525 L 24.0954,11.4581 L 24.1281,11.665
 L 24.1537,11.8728 L 24.1719,12.0815 L 24.1829,12.2906 L 24.1865,12.5 L 24.1829,12.7094 L 24.1719,12.9185
 L 24.1537,13.1272 L 24.1281,13.335 L 24.0954,13.5419 L 24.0554,13.7475 L 24.0083,13.9515 L 23.9541,14.1538
 L 23.8929,14.3541 L 23.8247,14.5521 L 23.7496,14.7476 L 23.6678,14.9404 L 23.5793,15.1302 L 23.4842,15.3168
 L 23.3827,15.5 L 23.2748,15.6795 L 23.1607,15.8551 L 23.0406,16.0267 L 22.9146,16.194 L 22.7828,16.3567
 L 22.6454,16.5148 L 22.5025,16.6679 L 22.3545,16.816 L 22.2013,16.9589 L 22.0432,17.0963 L 21.8805,17.2281
 L 21.7132,17.3541 L 21.5417,17.4742 L 21.366,17.5883 L 21.1865,17.6962 L 21.0033,17.7977 L 20.8167,17.8928
 L 20.6269,17.9813 L 20.4342,18.0631 L 20.2386,18.1382 L 20.0406,18.2063 L 19.8403,18.2676 L 19.638,18.3218
 L 19.434,18.3689 L 19.2284,18.4088 L 19.0216,18.4416 L 18.8137,18.4671 L 18.6051,18.4854 L 18.3959,18.4963
 L 18.1865,18.5 z
M -51.643,30.3991 L -51.759,30.3879 L -51.8742,30.3707 L -51.9883,30.3475 L -52.1011,30.3183 L -52.2122,30.2833
 L -52.3213,30.2425 L -52.4281,30.196 L -52.5324,30.144 L -52.6338,30.0867 L -52.732,30.0241 L -52.8268,29.9565
 L -52.918,29.8839 L -53.0052,29.8067 L -53.0883,29.7251 L -53.167,29.6392 L -53.2411,29.5493 L -53.3104,29.4557
 L -53.3747,29.3586 L -53.4338,29.2582 L -53.4876,29.1549 L -53.5359,29.0489 L -53.5786,28.9405 L -53.6156,28.83
 L -53.6467,28.7178 L -53.6719,28.604 L -53.6911,28.4892 L -53.7043,28.3734 L -53.7114,28.2571 L -53.7125,28.1407
 L -53.7074,28.0243 L -53.6962,27.9083 L -53.679,27.7931 L -53.6558,27.679 L -53.6266,27.5662 L -53.5916,27.4551
 L -53.5508,27.346 L -53.5043,27.2392 L -53.4524,27.1349 L -53.395,27.0335 L -53.3324,26.9353 L -53.2648,26.8404
 L -53.1922,26.7493 L -53.1151,26.662 L -53.0334,26.5789 L -52.9475,26.5003 L -52.8576,26.4262 L -52.764,26.3569
 L -52.6669,26.2926 L -52.5665,26.2335 L -52.4632,26.1797 L -52.3572,26.1314 L -52.2488,26.0887 L -52.1383,26.0517
 L -52.0261,26.0206 L -51.9124,25.9954 L -51.7975,25.9761 L -51.6817,25.963 L -51.5654,25.9558 L -51.449,25.9548
 L -51.3326,25.9599 L -51.2166,25.9711 L -51.1014,25.9883 L -50.9873,26.0115 L -50.8745,26.0407 L -50.7634,26.0757
 L -50.6543,26.1165 L -50.5475,26.1629 L -50.4432,26.2149 L -50.3418,26.2723 L -50.2436,26.3349 L -50.1488,26.4025
 L -50.0576,26.475 L -49.9704,26.5522 L -49.8873,26.6339 L -49.8086,26.7198 L -49.7345,26.8096 L -49.6652,26.9033
 L -49.6009,27.0004 L -49.5418,27.1008 L -49.488,27.2041 L -49.4397,27.3101 L -49.397,27.4185 L -49.36,27.529
 L -49.3289,27.6412 L -49.3037,27.7549 L -49.2845,27.8698 L -49.2713,27.9856 L -49.2641,28.1018 L -49.2631,28.2183
 L -49.2682,28.3347 L -49.2794,28.4506 L -49.2966,28.5659 L -49.3198,28.68 L -49.349,28.7928 L -49.384,28.9039
 L -49.4248,29.013 L -49.4713,29.1198 L -49.5232,29.2241 L -49.5806,29.3254 L -49.6432,29.4237 L -49.7108,29.5185
 L -49.7833,29.6097 L -49.8605,29.6969 L -49.9422,29.78 L -50.0281,29.8587 L -50.118,29.9328 L -50.2116,30.0021
 L -50.3087,30.0664 L -50.4091,30.1255 L -50.5124,30.1793 L -50.6184,30.2276 L -50.7268,30.2703 L -50.8373,30.3073
 L -50.9495,30.3384 L -51.0632,30.3636 L -51.1781,30.3828 L -51.2939,30.396 L -51.4101,30.4031 L -51.5266,30.4041
 z
M 51.3326,30.3991 L 51.2166,30.3879 L 51.1014,30.3707 L 50.9873,30.3475 L 50.8745,30.3183 L 50.7634,30.2833
 L 50.6543,30.2425 L 50.5475,30.196 L 50.4432,30.144 L 50.3418,30.0867 L 50.2436,30.0241 L 50.1488,29.9565
 L 50.0576,29.8839 L 49.9704,29.8067 L 49.8873,29.7251 L 49.8086,29.6392 L 49.7345,29.5493 L 49.6652,29.4557
 L 49.6009,29.3586 L 49.5418,29.2582 L 49.488,29.1549 L 49.4397,29.0489 L 49.397,28.9405 L 49.36,28.83
 L 49.3289,28.7178 L 49.3037,28.604 L 49.2845,28.4892 L 49.2713,28.3734 L 49.2641,28.2571 L 49.2631,28.1407
 L 49.2682,28.0243 L 49.2794,27.9083 L 49.2966,27.7931 L 49.3198,27.679 L 49.349,27.5662 L 49.384,27.4551
 L 49.4248,27.346 L 49.4713,27.2392 L 49.5232,27.1349 L 49.5806,27.0335 L 49.6432,26.9353 L 49.7108,26.8404
 L 49.7833,26.7493 L 49.8605,26.662 L 49.9422,26.5789 L 50.0281,26.5003 L 50.118,26.4262 L 50.2116,26.3569
 L 50.3087,26.2926 L 50.4091,26.2335 L 50.5124,26.1797 L 50.6184,26.1314 L 50.7268,26.0887 L 50.8373,26.0517
 L 50.9495,26.0206 L 51.0632,25.9954 L 51.1781,25.9761 L 51.2939,25.963 L 51.4101,25.9558 L 51.5266,25.9548
 L 51.643,25.9599 L 51.759,25.9711 L 51.8742,25.9883 L 51.9883,26.0115 L 52.1011,26.0407 L 52.2122,26.0757
 L 52.3213,26.1165 L 52.4281,26.1629 L 52.5324,26.2149 L 52.6338,26.2723 L 52.732,26.3349 L 52.8268,26.4025
 L 52.918,26.475 L 53.0052,26.5522 L 53.0883,26.6339 L 53.167,26.7198 L 53.2411,26.8096 L 53.3104,26.9033
 L 53.3747,27.0004 L 53.4338,27.1008 L 53.4876,27.2041 L 53.5359,27.3101 L 53.5786,27.4185 L 53.6156,27.529
 L 53.6467,27.6412 L 53.6719,27.7549 L 53.6911,27.8698 L 53.7043,27.9856 L 53.7114,28.1018 L 53.7125,28.2183
 L 53.7074,28.3347 L 53.6962,28.4506 L 53.679,28.5659 L 53.6558,28.68 L 53.6266,28.7928 L 53.5916,28.9039
 L 53.5508,29.013 L 53.5043,29.1198 L 53.4524,29.2241 L 53.395,29.3254 L 53.3324,29.4237 L 53.2648,29.5185
 L 53.1922,29.6097 L 53.1151,29.6969 L 53.0334,29.78 L 52.9475,29.8587 L 52.8576,29.9328 L 52.764,30.0021
 L 52.6669,30.0664 L 52.5665,30.1255 L 52.4632,30.1793 L 52.3572,30.2276 L 52.2488,30.2703 L 52.1383,30.3073
 L 52.0261,30.3384 L 51.9124,30.3636 L 51.7975,30.3828 L 51.6817,30.396 L 51.5654,30.4031 L 51.449,30.4041
 z
" stroke="black" fill="lightgray" stroke-width="0.5"/></svg>
