  0
SECTION
  2
BLOCKS
  0
ENDSEC
  0
SECTION
  2
ENTITIES
  0
LINE
  8
0
 10
35.074
 20
20.25
 11
35.0689
 21
20.25
  0
LINE
  8
0
 10
35.0689
 20
20.25
 11
34.86
 21
20.6162
  0
LINE
  8
0
 10
34.86
 20
20.6162
 11
34.1953
 21
21.701
  0
LINE
  8
0
 10
34.1953
 20
21.701
 11
33.4967
 21
22.7644
  0
LINE
  8
0
 10
33.4967
 20
22.7644
 11
32.7652
 21
23.8053
  0
LINE
  8
0
 10
32.7652
 20
23.8053
 11
32.0013
 21
24.8227
  0
LINE
  8
0
 10
32.0013
 20
24.8227
 11
31.2058
 21
25.8157
  0
LINE
  8
0
 10
31.2058
 20
25.8157
 11
30.3795
 21
26.7831
  0
LINE
  8
0
 10
30.3795
 20
26.7831
 11
29.5232
 21
27.7242
  0
LINE
  8
0
 10
29.5232
 20
27.7242
 11
28.6378
 21
28.6378
  0
LINE
  8
0
 10
28.6378
 20
28.6378
 11
27.7242
 21
29.5232
  0
LINE
  8
0
 10
27.7242
 20
29.5232
 11
26.7831
 21
30.3795
  0
LINE
  8
0
 10
26.7831
 20
30.3795
 11
25.8157
 21
31.2058
  0
LINE
  8
0
 10
25.8157
 20
31.2058
 11
24.8227
 21
32.0013
  0
LINE
  8
0
 10
24.8227
 20
32.0013
 11
23.8053
 21
32.7652
  0
LINE
  8
0
 10
23.8053
 20
32.7652
 11
22.7644
 21
33.4967
  0
LINE
  8
0
 10
22.7644
 20
33.4967
 11
21.701
 21
34.1953
  0
LINE
  8
0
 10
21.701
 20
34.1953
 11
20.6162
 21
34.86
  0
LINE
  8
0
 10
20.6162
 20
34.86
 11
19.511
 21
35.4904
  0
LINE
  8
0
 10
19.511
 20
35.4904
 11
18.3866
 21
36.0858
  0
LINE
  8
0
 10
18.3866
 20
36.0858
 11
17.244
 21
36.6455
  0
LINE
  8
0
 10
17.244
 20
36.6455
 11
16.0845
 21
37.1691
  0
LINE
  8
0
 10
16.0845
 20
37.1691
 11
14.909
 21
37.6559
  0
LINE
  8
0
 10
14.909
 20
37.6559
 11
13.7189
 21
38.1057
  0
LINE
  8
0
 10
13.7189
 20
38.1057
 11
12.5152
 21
38.5178
  0
LINE
  8
0
 10
12.5152
 20
38.5178
 11
11.2991
 21
38.8919
  0
LINE
  8
0
 10
11.2991
 20
38.8919
 11
10.0719
 21
39.2276
  0
LINE
  8
0
 10
10.0719
 20
39.2276
 11
8.83479
 21
39.5246
  0
LINE
  8
0
 10
8.83479
 20
39.5246
 11
7.58893
 21
39.7826
  0
LINE
  8
0
 10
7.58893
 20
39.7826
 11
6.33559
 21
40.0014
  0
LINE
  8
0
 10
6.33559
 20
40.0014
 11
5.07599
 21
40.1806
  0
LINE
  8
0
 10
5.07599
 20
40.1806
 11
3.81139
 21
40.3203
  0
LINE
  8
0
 10
3.81139
 20
40.3203
 11
2.54301
 21
40.4201
  0
LINE
  8
0
 10
2.54301
 20
40.4201
 11
1.27213
 21
40.48
  0
LINE
  8
0
 10
1.27213
 20
40.48
 11
0
 21
40.5
  0
LINE
  8
0
 10
0
 20
40.5
 11
-1.27213
 21
40.48
  0
LINE
  8
0
 10
-1.27213
 20
40.48
 11
-2.54301
 21
40.4201
  0
LINE
  8
0
 10
-2.54301
 20
40.4201
 11
-3.81139
 21
40.3203
  0
LINE
  8
0
 10
-3.81139
 20
40.3203
 11
-5.07599
 21
40.1806
  0
LINE
  8
0
 10
-5.07599
 20
40.1806
 11
-6.33559
 21
40.0014
  0
LINE
  8
0
 10
-6.33559
 20
40.0014
 11
-7.58893
 21
39.7826
  0
LINE
  8
0
 10
-7.58893
 20
39.7826
 11
-8.83479
 21
39.5246
  0
LINE
  8
0
 10
-8.83479
 20
39.5246
 11
-10.0719
 21
39.2276
  0
LINE
  8
0
 10
-10.0719
 20
39.2276
 11
-11.2991
 21
38.8919
  0
LINE
  8
0
 10
-11.2991
 20
38.8919
 11
-12.5152
 21
38.5178
  0
LINE
  8
0
 10
-12.5152
 20
38.5178
 11
-13.7189
 21
38.1057
  0
LINE
  8
0
 10
-13.7189
 20
38.1057
 11
-14.909
 21
37.6559
  0
LINE
  8
0
 10
-14.909
 20
37.6559
 11
-16.0845
 21
37.1691
  0
LINE
  8
0
 10
-16.0845
 20
37.1691
 11
-17.244
 21
36.6455
  0
LINE
  8
0
 10
-17.244
 20
36.6455
 11
-18.3866
 21
36.0858
  0
LINE
  8
0
 10
-18.3866
 20
36.0858
 11
-19.511
 21
35.4904
  0
LINE
  8
0
 10
-19.511
 20
35.4904
 11
-20.6162
 21
34.86
  0
LINE
  8
0
 10
-20.6162
 20
34.86
 11
-21.701
 21
34.1953
  0
LINE
  8
0
 10
-21.701
 20
34.1953
 11
-22.7644
 21
33.4967
  0
LINE
  8
0
 10
-22.7644
 20
33.4967
 11
-23.8053
 21
32.7652
  0
LINE
  8
0
 10
-23.8053
 20
32.7652
 11
-24.8227
 21
32.0013
  0
LINE
  8
0
 10
-24.8227
 20
32.0013
 11
-25.8157
 21
31.2058
  0
LINE
  8
0
 10
-25.8157
 20
31.2058
 11
-26.7831
 21
30.3795
  0
LINE
  8
0
 10
-26.7831
 20
30.3795
 11
-27.7242
 21
29.5232
  0
LINE
  8
0
 10
-27.7242
 20
29.5232
 11
-28.6378
 21
28.6378
  0
LINE
  8
0
 10
-28.6378
 20
28.6378
 11
-29.5232
 21
27.7242
  0
LINE
  8
0
 10
-29.5232
 20
27.7242
 11
-30.3795
 21
26.7831
  0
LINE
  8
0
 10
-30.3795
 20
26.7831
 11
-31.2058
 21
25.8157
  0
LINE
  8
0
 10
-31.2058
 20
25.8157
 11
-32.0013
 21
24.8227
  0
LINE
  8
0
 10
-32.0013
 20
24.8227
 11
-32.7652
 21
23.8053
  0
LINE
  8
0
 10
-32.7652
 20
23.8053
 11
-33.4967
 21
22.7644
  0
LINE
  8
0
 10
-33.4967
 20
22.7644
 11
-34.1953
 21
21.701
  0
LINE
  8
0
 10
-34.1953
 20
21.701
 11
-34.86
 21
20.6162
  0
LINE
  8
0
 10
-34.86
 20
20.6162
 11
-35.0689
 21
20.25
  0
LINE
  8
0
 10
-35.0689
 20
20.25
 11
-35.074
 21
20.25
  0
LINE
  8
0
 10
-35.074
 20
20.25
 11
-70.1481
 21
-40.5
  0
LINE
  8
0
 10
-70.1481
 20
-40.5
 11
70.1481
 21
-40.5
  0
LINE
  8
0
 10
70.1481
 20
-40.5
 11
35.074
 21
20.25
  0
LINE
  8
0
 10
-10
 20
14.5
 11
-10
 21
34.5
  0
LINE
  8
0
 10
-10
 20
34.5
 11
10
 21
34.5
  0
LINE
  8
0
 10
10
 20
34.5
 11
10
 21
14.5
  0
LINE
  8
0
 10
10
 20
14.5
 11
-10
 21
14.5
  0
LINE
  8
0
 10
-31.643
 20
4.24196
 11
-31.759
 21
4.25311
  0
LINE
  8
0
 10
-31.759
 20
4.25311
 11
-31.8742
 21
4.27034
  0
LINE
  8
0
 10
-31.8742
 20
4.27034
 11
-31.9883
 21
4.29356
  0
LINE
  8
0
 10
-31.9883
 20
4.29356
 11
-32.1011
 21
4.32272
  0
LINE
  8
0
 10
-32.1011
 20
4.32272
 11
-32.2122
 21
4.35776
  0
LINE
  8
0
 10
-32.2122
 20
4.35776
 11
-32.3213
 21
4.39854
  0
LINE
  8
0
 10
-32.3213
 20
4.39854
 11
-32.4281
 21
4.44499
  0
LINE
  8
0
 10
-32.4281
 20
4.44499
 11
-32.5324
 21
4.49698
  0
LINE
  8
0
 10
-32.5324
 20
4.49698
 11
-32.6338
 21
4.55434
  0
LINE
  8
0
 10
-32.6338
 20
4.55434
 11
-32.732
 21
4.61693
  0
LINE
  8
0
 10
-32.732
 20
4.61693
 11
-32.8268
 21
4.68457
  0
LINE
  8
0
 10
-32.8268
 20
4.68457
 11
-32.918
 21
4.75708
  0
LINE
  8
0
 10
-32.918
 20
4.75708
 11
-33.0052
 21
4.83427
  0
LINE
  8
0
 10
-33.0052
 20
4.83427
 11
-33.0883
 21
4.91592
  0
LINE
  8
0
 10
-33.0883
 20
4.91592
 11
-33.167
 21
5.0018
  0
LINE
  8
0
 10
-33.167
 20
5.0018
 11
-33.2411
 21
5.09169
  0
LINE
  8
0
 10
-33.2411
 20
5.09169
 11
-33.3104
 21
5.18532
  0
LINE
  8
0
 10
-33.3104
 20
5.18532
 11
-33.3747
 21
5.28246
  0
LINE
  8
0
 10
-33.3747
 20
5.28246
 11
-33.4338
 21
5.38283
  0
LINE
  8
0
 10
-33.4338
 20
5.38283
 11
-33.4876
 21
5.48616
  0
LINE
  8
0
 10
-33.4876
 20
5.48616
 11
-33.5359
 21
5.59215
  0
LINE
  8
0
 10
-33.5359
 20
5.59215
 11
-33.5786
 21
5.70053
  0
LINE
  8
0
 10
-33.5786
 20
5.70053
 11
-33.6156
 21
5.811
  0
LINE
  8
0
 10
-33.6156
 20
5.811
 11
-33.6467
 21
5.92325
  0
LINE
  8
0
 10
-33.6467
 20
5.92325
 11
-33.6719
 21
6.03699
  0
LINE
  8
0
 10
-33.6719
 20
6.03699
 11
-33.6911
 21
6.15187
  0
LINE
  8
0
 10
-33.6911
 20
6.15187
 11
-33.7043
 21
6.26761
  0
LINE
  8
0
 10
-33.7043
 20
6.26761
 11
-33.7114
 21
6.38388
  0
LINE
  8
0
 10
-33.7114
 20
6.38388
 11
-33.7125
 21
6.50037
  0
LINE
  8
0
 10
-33.7125
 20
6.50037
 11
-33.7074
 21
6.61674
  0
LINE
  8
0
 10
-33.7074
 20
6.61674
 11
-33.6962
 21
6.7327
  0
LINE
  8
0
 10
-33.6962
 20
6.7327
 11
-33.679
 21
6.8479
  0
LINE
  8
0
 10
-33.679
 20
6.8479
 11
-33.6558
 21
6.96205
  0
LINE
  8
0
 10
-33.6558
 20
6.96205
 11
-33.6266
 21
7.07483
  0
LINE
  8
0
 10
-33.6266
 20
7.07483
 11
-33.5916
 21
7.18593
  0
LINE
  8
0
 10
-33.5916
 20
7.18593
 11
-33.5508
 21
7.29503
  0
LINE
  8
0
 10
-33.5508
 20
7.29503
 11
-33.5043
 21
7.40186
  0
LINE
  8
0
 10
-33.5043
 20
7.40186
 11
-33.4524
 21
7.5061
  0
LINE
  8
0
 10
-33.4524
 20
7.5061
 11
-33.395
 21
7.6075
  0
LINE
  8
0
 10
-33.395
 20
7.6075
 11
-33.3324
 21
7.70573
  0
LINE
  8
0
 10
-33.3324
 20
7.70573
 11
-33.2648
 21
7.80057
  0
LINE
  8
0
 10
-33.2648
 20
7.80057
 11
-33.1922
 21
7.89174
  0
LINE
  8
0
 10
-33.1922
 20
7.89174
 11
-33.1151
 21
7.97897
  0
LINE
  8
0
 10
-33.1151
 20
7.97897
 11
-33.0334
 21
8.06206
  0
LINE
  8
0
 10
-33.0334
 20
8.06206
 11
-32.9475
 21
8.14076
  0
LINE
  8
0
 10
-32.9475
 20
8.14076
 11
-32.8576
 21
8.21486
  0
LINE
  8
0
 10
-32.8576
 20
8.21486
 11
-32.764
 21
8.28415
  0
LINE
  8
0
 10
-32.764
 20
8.28415
 11
-32.6669
 21
8.34843
  0
LINE
  8
0
 10
-32.6669
 20
8.34843
 11
-32.5665
 21
8.40756
  0
LINE
  8
0
 10
-32.5665
 20
8.40756
 11
-32.4632
 21
8.46135
  0
LINE
  8
0
 10
-32.4632
 20
8.46135
 11
-32.3572
 21
8.50966
  0
LINE
  8
0
 10
-32.3572
 20
8.50966
 11
-32.2488
 21
8.55235
  0
LINE
  8
0
 10
-32.2488
 20
8.55235
 11
-32.1383
 21
8.58931
  0
LINE
  8
0
 10
-32.1383
 20
8.58931
 11
-32.0261
 21
8.62044
  0
LINE
  8
0
 10
-32.0261
 20
8.62044
 11
-31.9124
 21
8.64565
  0
LINE
  8
0
 10
-31.9124
 20
8.64565
 11
-31.7975
 21
8.66487
  0
LINE
  8
0
 10
-31.7975
 20
8.66487
 11
-31.6817
 21
8.67807
  0
LINE
  8
0
 10
-31.6817
 20
8.67807
 11
-31.5654
 21
8.68518
  0
LINE
  8
0
 10
-31.5654
 20
8.68518
 11
-31.449
 21
8.68619
  0
LINE
  8
0
 10
-31.449
 20
8.68619
 11
-31.3326
 21
8.68111
  0
LINE
  8
0
 10
-31.3326
 20
8.68111
 11
-31.2166
 21
8.66995
  0
LINE
  8
0
 10
-31.2166
 20
8.66995
 11
-31.1014
 21
8.65273
  0
LINE
  8
0
 10
-31.1014
 20
8.65273
 11
-30.9873
 21
8.6295
  0
LINE
  8
0
 10
-30.9873
 20
8.6295
 11
-30.8745
 21
8.60034
  0
LINE
  8
0
 10
-30.8745
 20
8.60034
 11
-30.7634
 21
8.56531
  0
LINE
  8
0
 10
-30.7634
 20
8.56531
 11
-30.6543
 21
8.52452
  0
LINE
  8
0
 10
-30.6543
 20
8.52452
 11
-30.5475
 21
8.47807
  0
LINE
  8
0
 10
-30.5475
 20
8.47807
 11
-30.4432
 21
8.42609
  0
LINE
  8
0
 10
-30.4432
 20
8.42609
 11
-30.3418
 21
8.36873
  0
LINE
  8
0
 10
-30.3418
 20
8.36873
 11
-30.2436
 21
8.30614
  0
LINE
  8
0
 10
-30.2436
 20
8.30614
 11
-30.1488
 21
8.23849
  0
LINE
  8
0
 10
-30.1488
 20
8.23849
 11
-30.0576
 21
8.16599
  0
LINE
  8
0
 10
-30.0576
 20
8.16599
 11
-29.9704
 21
8.08879
  0
LINE
  8
0
 10
-29.9704
 20
8.08879
 11
-29.8873
 21
8.00714
  0
LINE
  8
0
 10
-29.8873
 20
8.00714
 11
-29.8086
 21
7.92126
  0
LINE
  8
0
 10
-29.8086
 20
7.92126
 11
-29.7345
 21
7.83138
  0
LINE
  8
0
 10
-29.7345
 20
7.83138
 11
-29.6652
 21
7.73773
  0
LINE
  8
0
 10
-29.6652
 20
7.73773
 11
-29.6009
 21
7.64061
  0
LINE
  8
0
 10
-29.6009
 20
7.64061
 11
-29.5418
 21
7.54024
  0
LINE
  8
0
 10
-29.5418
 20
7.54024
 11
-29.488
 21
7.4369
  0
LINE
  8
0
 10
-29.488
 20
7.4369
 11
-29.4397
 21
7.3309
  0
LINE
  8
0
 10
-29.4397
 20
7.3309
 11
-29.397
 21
7.22253
  0
LINE
  8
0
 10
-29.397
 20
7.22253
 11
-29.36
 21
7.11206
  0
LINE
  8
0
 10
-29.36
 20
7.11206
 11
-29.3289
 21
6.9998
  0
LINE
  8
0
 10
-29.3289
 20
6.9998
 11
-29.3037
 21
6.88608
  0
LINE
  8
0
 10
-29.3037
 20
6.88608
 11
-29.2845
 21
6.77119
  0
LINE
  8
0
 10
-29.2845
 20
6.77119
 11
-29.2713
 21
6.65546
  0
LINE
  8
0
 10
-29.2713
 20
6.65546
 11
-29.2641
 21
6.53918
  0
LINE
  8
0
 10
-29.2641
 20
6.53918
 11
-29.2631
 21
6.4227
  0
LINE
  8
0
 10
-29.2631
 20
6.4227
 11
-29.2682
 21
6.30632
  0
LINE
  8
0
 10
-29.2682
 20
6.30632
 11
-29.2794
 21
6.19037
  0
LINE
  8
0
 10
-29.2794
 20
6.19037
 11
-29.2966
 21
6.07516
  0
LINE
  8
0
 10
-29.2966
 20
6.07516
 11
-29.3198
 21
5.96101
  0
LINE
  8
0
 10
-29.3198
 20
5.96101
 11
-29.349
 21
5.84824
  0
LINE
  8
0
 10
-29.349
 20
5.84824
 11
-29.384
 21
5.73714
  0
LINE
  8
0
 10
-29.384
 20
5.73714
 11
-29.4248
 21
5.62804
  0
LINE
  8
0
 10
-29.4248
 20
5.62804
 11
-29.4713
 21
5.52121
  0
LINE
  8
0
 10
-29.4713
 20
5.52121
 11
-29.5232
 21
5.41696
  0
LINE
  8
0
 10
-29.5232
 20
5.41696
 11
-29.5806
 21
5.31557
  0
LINE
  8
0
 10
-29.5806
 20
5.31557
 11
-29.6432
 21
5.21733
  0
LINE
  8
0
 10
-29.6432
 20
5.21733
 11
-29.7108
 21
5.1225
  0
LINE
  8
0
 10
-29.7108
 20
5.1225
 11
-29.7833
 21
5.03133
  0
LINE
  8
0
 10
-29.7833
 20
5.03133
 11
-29.8605
 21
4.94409
  0
LINE
  8
0
 10
-29.8605
 20
4.94409
 11
-29.9422
 21
4.86101
  0
LINE
  8
0
 10
-29.9422
 20
4.86101
 11
-30.0281
 21
4.7823
  0
LINE
  8
0
 10
-30.0281
 20
4.7823
 11
-30.118
 21
4.70821
  0
LINE
  8
0
 10
-30.118
 20
4.70821
 11
-30.2116
 21
4.63892
  0
LINE
  8
0
 10
-30.2116
 20
4.63892
 11
-30.3087
 21
4.57463
  0
LINE
  8
0
 10
-30.3087
 20
4.57463
 11
-30.4091
 21
4.5155
  0
LINE
  8
0
 10
-30.4091
 20
4.5155
 11
-30.5124
 21
4.46172
  0
LINE
  8
0
 10
-30.5124
 20
4.46172
 11
-30.6184
 21
4.41341
  0
LINE
  8
0
 10
-30.6184
 20
4.41341
 11
-30.7268
 21
4.37071
  0
LINE
  8
0
 10
-30.7268
 20
4.37071
 11
-30.8373
 21
4.33376
  0
LINE
  8
0
 10
-30.8373
 20
4.33376
 11
-30.9495
 21
4.30263
  0
LINE
  8
0
 10
-30.9495
 20
4.30263
 11
-31.0632
 21
4.2774
  0
LINE
  8
0
 10
-31.0632
 20
4.2774
 11
-31.1781
 21
4.25818
  0
LINE
  8
0
 10
-31.1781
 20
4.25818
 11
-31.2939
 21
4.245
  0
LINE
  8
0
 10
-31.2939
 20
4.245
 11
-31.4101
 21
4.23788
  0
LINE
  8
0
 10
-31.4101
 20
4.23788
 11
-31.5266
 21
4.23688
  0
LINE
  8
0
 10
-31.5266
 20
4.23688
 11
-31.643
 21
4.24196
  0
LINE
  8
0
 10
31.3326
 20
4.24196
 11
31.2166
 21
4.25311
  0
LINE
  8
0
 10
31.2166
 20
4.25311
 11
31.1014
 21
4.27034
  0
LINE
  8
0
 10
31.1014
 20
4.27034
 11
30.9873
 21
4.29356
  0
LINE
  8
0
 10
30.9873
 20
4.29356
 11
30.8745
 21
4.32272
  0
LINE
  8
0
 10
30.8745
 20
4.32272
 11
30.7634
 21
4.35776
  0
LINE
  8
0
 10
30.7634
 20
4.35776
 11
30.6543
 21
4.39854
  0
LINE
  8
0
 10
30.6543
 20
4.39854
 11
30.5475
 21
4.44499
  0
LINE
  8
0
 10
30.5475
 20
4.44499
 11
30.4432
 21
4.49698
  0
LINE
  8
0
 10
30.4432
 20
4.49698
 11
30.3418
 21
4.55434
  0
LINE
  8
0
 10
30.3418
 20
4.55434
 11
30.2436
 21
4.61693
  0
LINE
  8
0
 10
30.2436
 20
4.61693
 11
30.1488
 21
4.68457
  0
LINE
  8
0
 10
30.1488
 20
4.68457
 11
30.0576
 21
4.75708
  0
LINE
  8
0
 10
30.0576
 20
4.75708
 11
29.9704
 21
4.83427
  0
LINE
  8
0
 10
29.9704
 20
4.83427
 11
29.8873
 21
4.91592
  0
LINE
  8
0
 10
29.8873
 20
4.91592
 11
29.8086
 21
5.0018
  0
LINE
  8
0
 10
29.8086
 20
5.0018
 11
29.7345
 21
5.09169
  0
LINE
  8
0
 10
29.7345
 20
5.09169
 11
29.6652
 21
5.18532
  0
LINE
  8
0
 10
29.6652
 20
5.18532
 11
29.6009
 21
5.28246
  0
LINE
  8
0
 10
29.6009
 20
5.28246
 11
29.5418
 21
5.38283
  0
LINE
  8
0
 10
29.5418
 20
5.38283
 11
29.488
 21
5.48616
  0
LINE
  8
0
 10
29.488
 20
5.48616
 11
29.4397
 21
5.59215
  0
LINE
  8
0
 10
29.4397
 20
5.59215
 11
29.397
 21
5.70053
  0
LINE
  8
0
 10
29.397
 20
5.70053
 11
29.36
 21
5.811
  0
LINE
  8
0
 10
29.36
 20
5.811
 11
29.3289
 21
5.92325
  0
LINE
  8
0
 10
29.3289
 20
5.92325
 11
29.3037
 21
6.03699
  0
LINE
  8
0
 10
29.3037
 20
6.03699
 11
29.2845
 21
6.15187
  0
LINE
  8
0
 10
29.2845
 20
6.15187
 11
29.2713
 21
6.26761
  0
LINE
  8
0
 10
29.2713
 20
6.26761
 11
29.2641
 21
6.38388
  0
LINE
  8
0
 10
29.2641
 20
6.38388
 11
29.2631
 21
6.50037
  0
LINE
  8
0
 10
29.2631
 20
6.50037
 11
29.2682
 21
6.61674
  0
LINE
  8
0
 10
29.2682
 20
6.61674
 11
29.2794
 21
6.7327
  0
LINE
  8
0
 10
29.2794
 20
6.7327
 11
29.2966
 21
6.8479
  0
LINE
  8
0
 10
29.2966
 20
6.8479
 11
29.3198
 21
6.96205
  0
LINE
  8
0
 10
29.3198
 20
6.96205
 11
29.349
 21
7.07483
  0
LINE
  8
0
 10
29.349
 20
7.07483
 11
29.384
 21
7.18593
  0
LINE
  8
0
 10
29.384
 20
7.18593
 11
29.4248
 21
7.29503
  0
LINE
  8
0
 10
29.4248
 20
7.29503
 11
29.4713
 21
7.40186
  0
LINE
  8
0
 10
29.4713
 20
7.40186
 11
29.5232
 21
7.5061
  0
LINE
  8
0
 10
29.5232
 20
7.5061
 11
29.5806
 21
7.6075
  0
LINE
  8
0
 10
29.5806
 20
7.6075
 11
29.6432
 21
7.70573
  0
LINE
  8
0
 10
29.6432
 20
7.70573
 11
29.7108
 21
7.80057
  0
LINE
  8
0
 10
29.7108
 20
7.80057
 11
29.7833
 21
7.89174
  0
LINE
  8
0
 10
29.7833
 20
7.89174
 11
29.8605
 21
7.97897
  0
LINE
  8
0
 10
29.8605
 20
7.97897
 11
29.9422
 21
8.06206
  0
LINE
  8
0
 10
29.9422
 20
8.06206
 11
30.0281
 21
8.14076
  0
LINE
  8
0
 10
30.0281
 20
8.14076
 11
30.118
 21
8.21486
  0
LINE
  8
0
 10
30.118
 20
8.21486
 11
30.2116
 21
8.28415
  0
LINE
  8
0
 10
30.2116
 20
8.28415
 11
30.3087
 21
8.34843
  0
LINE
  8
0
 10
30.3087
 20
8.34843
 11
30.4091
 21
8.40756
  0
LINE
  8
0
 10
30.4091
 20
8.40756
 11
30.5124
 21
8.46135
  0
LINE
  8
0
 10
30.5124
 20
8.46135
 11
30.6184
 21
8.50966
  0
LINE
  8
0
 10
30.6184
 20
8.50966
 11
30.7268
 21
8.55235
  0
LINE
  8
0
 10
30.7268
 20
8.55235
 11
30.8373
 21
8.58931
  0
LINE
  8
0
 10
30.8373
 20
8.58931
 11
30.9495
 21
8.62044
  0
LINE
  8
0
 10
30.9495
 20
8.62044
 11
31.0632
 21
8.64565
  0
LINE
  8
0
 10
31.0632
 20
8.64565
 11
31.1781
 21
8.66487
  0
LINE
  8
0
 10
31.1781
 20
8.66487
 11
31.2939
 21
8.67807
  0
LINE
  8
0
 10
31.2939
 20
8.67807
 11
31.4101
 21
8.68518
  0
LINE
  8
0
 10
31.4101
 20
8.68518
 11
31.5266
 21
8.68619
  0
LINE
  8
0
 10
31.5266
 20
8.68619
 11
31.643
 21
8.68111
  0
LINE
  8
0
 10
31.643
 20
8.68111
 11
31.759
 21
8.66995
  0
LINE
  8
0
 10
31.759
 20
8.66995
 11
31.8742
 21
8.65273
  0
LINE
  8
0
 10
31.8742
 20
8.65273
 11
31.9883
 21
8.6295
  0
LINE
  8
0
 10
31.9883
 20
8.6295
 11
32.1011
 21
8.60034
  0
LINE
  8
0
 10
32.1011
 20
8.60034
 11
32.2122
 21
8.56531
  0
LINE
  8
0
 10
32.2122
 20
8.56531
 11
32.3213
 21
8.52452
  0
LINE
  8
0
 10
32.3213
 20
8.52452
 11
32.4281
 21
8.47807
  0
LINE
  8
0
 10
32.4281
 20
8.47807
 11
32.5324
 21
8.42609
  0
LINE
  8
0
 10
32.5324
 20
8.42609
 11
32.6338
 21
8.36873
  0
LINE
  8
0
 10
32.6338
 20
8.36873
 11
32.732
 21
8.30614
  0
LINE
  8
0
 10
32.732
 20
8.30614
 11
32.8268
 21
8.23849
  0
LINE
  8
0
 10
32.8268
 20
8.23849
 11
32.918
 21
8.16599
  0
LINE
  8
0
 10
32.918
 20
8.16599
 11
33.0052
 21
8.08879
  0
LINE
  8
0
 10
33.0052
 20
8.08879
 11
33.0883
 21
8.00714
  0
LINE
  8
0
 10
33.0883
 20
8.00714
 11
33.167
 21
7.92126
  0
LINE
  8
0
 10
33.167
 20
7.92126
 11
33.2411
 21
7.83138
  0
LINE
  8
0
 10
33.2411
 20
7.83138
 11
33.3104
 21
7.73773
  0
LINE
  8
0
 10
33.3104
 20
7.73773
 11
33.3747
 21
7.64061
  0
LINE
  8
0
 10
33.3747
 20
7.64061
 11
33.4338
 21
7.54024
  0
LINE
  8
0
 10
33.4338
 20
7.54024
 11
33.4876
 21
7.4369
  0
LINE
  8
0
 10
33.4876
 20
7.4369
 11
33.5359
 21
7.3309
  0
LINE
  8
0
 10
33.5359
 20
7.3309
 11
33.5786
 21
7.22253
  0
LINE
  8
0
 10
33.5786
 20
7.22253
 11
33.6156
 21
7.11206
  0
LINE
  8
0
 10
33.6156
 20
7.11206
 11
33.6467
 21
6.9998
  0
LINE
  8
0
 10
33.6467
 20
6.9998
 11
33.6719
 21
6.88608
  0
LINE
  8
0
 10
33.6719
 20
6.88608
 11
33.6911
 21
6.77119
  0
LINE
  8
0
 10
33.6911
 20
6.77119
 11
33.7043
 21
6.65546
  0
LINE
  8
0
 10
33.7043
 20
6.65546
 11
33.7114
 21
6.53918
  0
LINE
  8
0
 10
33.7114
 20
6.53918
 11
33.7125
 21
6.4227
  0
LINE
  8
0
 10
33.7125
 20
6.4227
 11
33.7074
 21
6.30632
  0
LINE
  8
0
 10
33.7074
 20
6.30632
 11
33.6962
 21
6.19037
  0
LINE
  8
0
 10
33.6962
 20
6.19037
 11
33.679
 21
6.07516
  0
LINE
  8
0
 10
33.679
 20
6.07516
 11
33.6558
 21
5.96101
  0
LINE
  8
0
 10
33.6558
 20
5.96101
 11
33.6266
 21
5.84824
  0
LINE
  8
0
 10
33.6266
 20
5.84824
 11
33.5916
 21
5.73714
  0
LINE
  8
0
 10
33.5916
 20
5.73714
 11
33.5508
 21
5.62804
  0
LINE
  8
0
 10
33.5508
 20
5.62804
 11
33.5043
 21
5.52121
  0
LINE
  8
0
 10
33.5043
 20
5.52121
 11
33.4524
 21
5.41696
  0
LINE
  8
0
 10
33.4524
 20
5.41696
 11
33.395
 21
5.31557
  0
LINE
  8
0
 10
33.395
 20
5.31557
 11
33.3324
 21
5.21733
  0
LINE
  8
0
 10
33.3324
 20
5.21733
 11
33.2648
 21
5.1225
  0
LINE
  8
0
 10
33.2648
 20
5.1225
 11
33.1922
 21
5.03133
  0
LINE
  8
0
 10
33.1922
 20
5.03133
 11
33.1151
 21
4.94409
  0
LINE
  8
0
 10
33.1151
 20
4.94409
 11
33.0334
 21
4.86101
  0
LINE
  8
0
 10
33.0334
 20
4.86101
 11
32.9475
 21
4.7823
  0
LINE
  8
0
 10
32.9475
 20
4.7823
 11
32.8576
 21
4.70821
  0
LINE
  8
0
 10
32.8576
 20
4.70821
 11
32.764
 21
4.63892
  0
LINE
  8
0
 10
32.764
 20
4.63892
 11
32.6669
 21
4.57463
  0
LINE
  8
0
 10
32.6669
 20
4.57463
 11
32.5665
 21
4.5155
  0
LINE
  8
0
 10
32.5665
 20
4.5155
 11
32.4632
 21
4.46172
  0
LINE
  8
0
 10
32.4632
 20
4.46172
 11
32.3572
 21
4.41341
  0
LINE
  8
0
 10
32.3572
 20
4.41341
 11
32.2488
 21
4.37071
  0
LINE
  8
0
 10
32.2488
 20
4.37071
 11
32.1383
 21
4.33376
  0
LINE
  8
0
 10
32.1383
 20
4.33376
 11
32.0261
 21
4.30263
  0
LINE
  8
0
 10
32.0261
 20
4.30263
 11
31.9124
 21
4.2774
  0
LINE
  8
0
 10
31.9124
 20
4.2774
 11
31.7975
 21
4.25818
  0
LINE
  8
0
 10
31.7975
 20
4.25818
 11
31.6817
 21
4.245
  0
LINE
  8
0
 10
31.6817
 20
4.245
 11
31.5654
 21
4.23788
  0
LINE
  8
0
 10
31.5654
 20
4.23788
 11
31.449
 21
4.23688
  0
LINE
  8
0
 10
31.449
 20
4.23688
 11
31.3326
 21
4.24196
  0
LINE
  8
0
 10
-18.2912
 20
-18.4991
 11
-18.5005
 21
-18.4918
  0
LINE
  8
0
 10
-18.5005
 20
-18.4918
 11
-18.7095
 21
-18.4771
  0
LINE
  8
0
 10
-18.7095
 20
-18.4771
 11
-18.9177
 21
-18.4553
  0
LINE
  8
0
 10
-18.9177
 20
-18.4553
 11
-19.1251
 21
-18.4261
  0
LINE
  8
0
 10
-19.1251
 20
-18.4261
 11
-19.3314
 21
-18.3897
  0
LINE
  8
0
 10
-19.3314
 20
-18.3897
 11
-19.5362
 21
-18.3462
  0
LINE
  8
0
 10
-19.5362
 20
-18.3462
 11
-19.7394
 21
-18.2955
  0
LINE
  8
0
 10
-19.7394
 20
-18.2955
 11
-19.9408
 21
-18.2378
  0
LINE
  8
0
 10
-19.9408
 20
-18.2378
 11
-20.1399
 21
-18.1731
  0
LINE
  8
0
 10
-20.1399
 20
-18.1731
 11
-20.3367
 21
-18.1015
  0
LINE
  8
0
 10
-20.3367
 20
-18.1015
 11
-20.5309
 21
-18.023
  0
LINE
  8
0
 10
-20.5309
 20
-18.023
 11
-20.7222
 21
-17.9378
  0
LINE
  8
0
 10
-20.7222
 20
-17.9378
 11
-20.9105
 21
-17.846
  0
LINE
  8
0
 10
-20.9105
 20
-17.846
 11
-21.0954
 21
-17.7477
  0
LINE
  8
0
 10
-21.0954
 20
-17.7477
 11
-21.2768
 21
-17.643
  0
LINE
  8
0
 10
-21.2768
 20
-17.643
 11
-21.4544
 21
-17.532
  0
LINE
  8
0
 10
-21.4544
 20
-17.532
 11
-21.628
 21
-17.4149
  0
LINE
  8
0
 10
-21.628
 20
-17.4149
 11
-21.7974
 21
-17.2918
  0
LINE
  8
0
 10
-21.7974
 20
-17.2918
 11
-21.9624
 21
-17.1629
  0
LINE
  8
0
 10
-21.9624
 20
-17.1629
 11
-22.1229
 21
-17.0282
  0
LINE
  8
0
 10
-22.1229
 20
-17.0282
 11
-22.2785
 21
-16.8881
  0
LINE
  8
0
 10
-22.2785
 20
-16.8881
 11
-22.4292
 21
-16.7426
  0
LINE
  8
0
 10
-22.4292
 20
-16.7426
 11
-22.5746
 21
-16.592
  0
LINE
  8
0
 10
-22.5746
 20
-16.592
 11
-22.7148
 21
-16.4363
  0
LINE
  8
0
 10
-22.7148
 20
-16.4363
 11
-22.8494
 21
-16.2759
  0
LINE
  8
0
 10
-22.8494
 20
-16.2759
 11
-22.9783
 21
-16.1109
  0
LINE
  8
0
 10
-22.9783
 20
-16.1109
 11
-23.1014
 21
-15.9414
  0
LINE
  8
0
 10
-23.1014
 20
-15.9414
 11
-23.2186
 21
-15.7678
  0
LINE
  8
0
 10
-23.2186
 20
-15.7678
 11
-23.3295
 21
-15.5902
  0
LINE
  8
0
 10
-23.3295
 20
-15.5902
 11
-23.4342
 21
-15.4088
  0
LINE
  8
0
 10
-23.4342
 20
-15.4088
 11
-23.5326
 21
-15.2239
  0
LINE
  8
0
 10
-23.5326
 20
-15.2239
 11
-23.6244
 21
-15.0357
  0
LINE
  8
0
 10
-23.6244
 20
-15.0357
 11
-23.7096
 21
-14.8444
  0
LINE
  8
0
 10
-23.7096
 20
-14.8444
 11
-23.788
 21
-14.6502
  0
LINE
  8
0
 10
-23.788
 20
-14.6502
 11
-23.8596
 21
-14.4534
  0
LINE
  8
0
 10
-23.8596
 20
-14.4534
 11
-23.9244
 21
-14.2542
  0
LINE
  8
0
 10
-23.9244
 20
-14.2542
 11
-23.9821
 21
-14.0529
  0
LINE
  8
0
 10
-23.9821
 20
-14.0529
 11
-24.0327
 21
-13.8497
  0
LINE
  8
0
 10
-24.0327
 20
-13.8497
 11
-24.0763
 21
-13.6448
  0
LINE
  8
0
 10
-24.0763
 20
-13.6448
 11
-24.1127
 21
-13.4386
  0
LINE
  8
0
 10
-24.1127
 20
-13.4386
 11
-24.1418
 21
-13.2312
  0
LINE
  8
0
 10
-24.1418
 20
-13.2312
 11
-24.1637
 21
-13.0229
  0
LINE
  8
0
 10
-24.1637
 20
-13.0229
 11
-24.1783
 21
-12.814
  0
LINE
  8
0
 10
-24.1783
 20
-12.814
 11
-24.1856
 21
-12.6047
  0
LINE
  8
0
 10
-24.1856
 20
-12.6047
 11
-24.1856
 21
-12.3953
  0
LINE
  8
0
 10
-24.1856
 20
-12.3953
 11
-24.1783
 21
-12.186
  0
LINE
  8
0
 10
-24.1783
 20
-12.186
 11
-24.1637
 21
-11.9771
  0
LINE
  8
0
 10
-24.1637
 20
-11.9771
 11
-24.1418
 21
-11.7688
  0
LINE
  8
0
 10
-24.1418
 20
-11.7688
 11
-24.1127
 21
-11.5614
  0
LINE
  8
0
 10
-24.1127
 20
-11.5614
 11
-24.0763
 21
-11.3551
  0
LINE
  8
0
 10
-24.0763
 20
-11.3551
 11
-24.0327
 21
-11.1503
  0
LINE
  8
0
 10
-24.0327
 20
-11.1503
 11
-23.9821
 21
-10.9471
  0
LINE
  8
0
 10
-23.9821
 20
-10.9471
 11
-23.9244
 21
-10.7458
  0
LINE
  8
0
 10
-23.9244
 20
-10.7458
 11
-23.8596
 21
-10.5466
  0
LINE
  8
0
 10
-23.8596
 20
-10.5466
 11
-23.788
 21
-10.3498
  0
LINE
  8
0
 10
-23.788
 20
-10.3498
 11
-23.7096
 21
-10.1556
  0
LINE
  8
0
 10
-23.7096
 20
-10.1556
 11
-23.6244
 21
-9.96428
  0
LINE
  8
0
 10
-23.6244
 20
-9.96428
 11
-23.5326
 21
-9.77605
  0
LINE
  8
0
 10
-23.5326
 20
-9.77605
 11
-23.4342
 21
-9.59114
  0
LINE
  8
0
 10
-23.4342
 20
-9.59114
 11
-14.6693
 21
5.59023
  0
LINE
  8
0
 10
-14.6693
 20
5.59023
 11
-14.5583
 21
5.76782
  0
LINE
  8
0
 10
-14.5583
 20
5.76782
 11
-14.4412
 21
5.94145
  0
LINE
  8
0
 10
-14.4412
 20
5.94145
 11
-14.3181
 21
6.11089
  0
LINE
  8
0
 10
-14.3181
 20
6.11089
 11
-14.1891
 21
6.27591
  0
LINE
  8
0
 10
-14.1891
 20
6.27591
 11
-14.0545
 21
6.43634
  0
LINE
  8
0
 10
-14.0545
 20
6.43634
 11
-13.9144
 21
6.59198
  0
LINE
  8
0
 10
-13.9144
 20
6.59198
 11
-13.7689
 21
6.74263
  0
LINE
  8
0
 10
-13.7689
 20
6.74263
 11
-13.6183
 21
6.88811
  0
LINE
  8
0
 10
-13.6183
 20
6.88811
 11
-13.4626
 21
7.02824
  0
LINE
  8
0
 10
-13.4626
 20
7.02824
 11
-13.3022
 21
7.16287
  0
LINE
  8
0
 10
-13.3022
 20
7.16287
 11
-13.1371
 21
7.29181
  0
LINE
  8
0
 10
-13.1371
 20
7.29181
 11
-12.9677
 21
7.4149
  0
LINE
  8
0
 10
-12.9677
 20
7.4149
 11
-12.7941
 21
7.53201
  0
LINE
  8
0
 10
-12.7941
 20
7.53201
 11
-12.6165
 21
7.64299
  0
LINE
  8
0
 10
-12.6165
 20
7.64299
 11
-12.4351
 21
7.74771
  0
LINE
  8
0
 10
-12.4351
 20
7.74771
 11
-12.2502
 21
7.84604
  0
LINE
  8
0
 10
-12.2502
 20
7.84604
 11
-12.062
 21
7.93784
  0
LINE
  8
0
 10
-12.062
 20
7.93784
 11
-11.8706
 21
8.02303
  0
LINE
  8
0
 10
-11.8706
 20
8.02303
 11
-11.6765
 21
8.10147
  0
LINE
  8
0
 10
-11.6765
 20
8.10147
 11
-11.4797
 21
8.17311
  0
LINE
  8
0
 10
-11.4797
 20
8.17311
 11
-11.2805
 21
8.23782
  0
LINE
  8
0
 10
-11.2805
 20
8.23782
 11
-11.0792
 21
8.29555
  0
LINE
  8
0
 10
-11.0792
 20
8.29555
 11
-10.876
 21
8.34621
  0
LINE
  8
0
 10
-10.876
 20
8.34621
 11
-10.6711
 21
8.38976
  0
LINE
  8
0
 10
-10.6711
 20
8.38976
 11
-10.4649
 21
8.42612
  0
LINE
  8
0
 10
-10.4649
 20
8.42612
 11
-10.2575
 21
8.45528
  0
LINE
  8
0
 10
-10.2575
 20
8.45528
 11
-10.0492
 21
8.47716
  0
LINE
  8
0
 10
-10.0492
 20
8.47716
 11
-9.84027
 21
8.49178
  0
LINE
  8
0
 10
-9.84027
 20
8.49178
 11
-9.63097
 21
8.49908
  0
LINE
  8
0
 10
-9.63097
 20
8.49908
 11
9.63098
 21
8.49907
  0
LINE
  8
0
 10
9.63098
 20
8.49907
 11
9.84029
 21
8.49176
  0
LINE
  8
0
 10
9.84029
 20
8.49176
 11
10.0492
 21
8.47714
  0
LINE
  8
0
 10
10.0492
 20
8.47714
 11
10.2575
 21
8.45526
  0
LINE
  8
0
 10
10.2575
 20
8.45526
 11
10.4649
 21
8.4261
  0
LINE
  8
0
 10
10.4649
 20
8.4261
 11
10.6711
 21
8.38974
  0
LINE
  8
0
 10
10.6711
 20
8.38974
 11
10.876
 21
8.34619
  0
LINE
  8
0
 10
10.876
 20
8.34619
 11
11.0792
 21
8.29553
  0
LINE
  8
0
 10
11.0792
 20
8.29553
 11
11.2805
 21
8.23781
  0
LINE
  8
0
 10
11.2805
 20
8.23781
 11
11.4797
 21
8.1731
  0
LINE
  8
0
 10
11.4797
 20
8.1731
 11
11.6765
 21
8.10146
  0
LINE
  8
0
 10
11.6765
 20
8.10146
 11
11.8707
 21
8.02301
  0
LINE
  8
0
 10
11.8707
 20
8.02301
 11
12.062
 21
7.93782
  0
LINE
  8
0
 10
12.062
 20
7.93782
 11
12.2502
 21
7.84602
  0
LINE
  8
0
 10
12.2502
 20
7.84602
 11
12.4351
 21
7.7477
  0
LINE
  8
0
 10
12.4351
 20
7.7477
 11
12.6165
 21
7.64297
  0
LINE
  8
0
 10
12.6165
 20
7.64297
 11
12.7941
 21
7.532
  0
LINE
  8
0
 10
12.7941
 20
7.532
 11
12.9677
 21
7.41489
  0
LINE
  8
0
 10
12.9677
 20
7.41489
 11
13.1372
 21
7.29179
  0
LINE
  8
0
 10
13.1372
 20
7.29179
 11
13.3022
 21
7.16286
  0
LINE
  8
0
 10
13.3022
 20
7.16286
 11
13.4626
 21
7.02823
  0
LINE
  8
0
 10
13.4626
 20
7.02823
 11
13.6183
 21
6.88809
  0
LINE
  8
0
 10
13.6183
 20
6.88809
 11
13.7689
 21
6.74261
  0
LINE
  8
0
 10
13.7689
 20
6.74261
 11
13.9144
 21
6.59196
  0
LINE
  8
0
 10
13.9144
 20
6.59196
 11
14.0545
 21
6.43633
  0
LINE
  8
0
 10
14.0545
 20
6.43633
 11
14.1891
 21
6.27589
  0
LINE
  8
0
 10
14.1891
 20
6.27589
 11
14.3181
 21
6.11087
  0
LINE
  8
0
 10
14.3181
 20
6.11087
 11
14.4412
 21
5.94144
  0
LINE
  8
0
 10
14.4412
 20
5.94144
 11
14.5583
 21
5.76781
  0
LINE
  8
0
 10
14.5583
 20
5.76781
 11
14.6693
 21
5.59021
  0
LINE
  8
0
 10
14.6693
 20
5.59021
 11
23.3827
 21
-9.5
  0
LINE
  8
0
 10
23.3827
 20
-9.5
 11
23.4842
 21
-9.68318
  0
LINE
  8
0
 10
23.4842
 20
-9.68318
 11
23.5793
 21
-9.86978
  0
LINE
  8
0
 10
23.5793
 20
-9.86978
 11
23.6678
 21
-10.0596
  0
LINE
  8
0
 10
23.6678
 20
-10.0596
 11
23.7496
 21
-10.2524
  0
LINE
  8
0
 10
23.7496
 20
-10.2524
 11
23.8247
 21
-10.4479
  0
LINE
  8
0
 10
23.8247
 20
-10.4479
 11
23.8929
 21
-10.6459
  0
LINE
  8
0
 10
23.8929
 20
-10.6459
 11
23.9541
 21
-10.8462
  0
LINE
  8
0
 10
23.9541
 20
-10.8462
 11
24.0083
 21
-11.0485
  0
LINE
  8
0
 10
24.0083
 20
-11.0485
 11
24.0554
 21
-11.2525
  0
LINE
  8
0
 10
24.0554
 20
-11.2525
 11
24.0954
 21
-11.4581
  0
LINE
  8
0
 10
24.0954
 20
-11.4581
 11
24.1281
 21
-11.665
  0
LINE
  8
0
 10
24.1281
 20
-11.665
 11
24.1537
 21
-11.8728
  0
LINE
  8
0
 10
24.1537
 20
-11.8728
 11
24.1719
 21
-12.0815
  0
LINE
  8
0
 10
24.1719
 20
-12.0815
 11
24.1829
 21
-12.2906
  0
LINE
  8
0
 10
24.1829
 20
-12.2906
 11
24.1865
 21
-12.5
  0
LINE
  8
0
 10
24.1865
 20
-12.5
 11
24.1829
 21
-12.7094
  0
LINE
  8
0
 10
24.1829
 20
-12.7094
 11
24.1719
 21
-12.9185
  0
LINE
  8
0
 10
24.1719
 20
-12.9185
 11
24.1537
 21
-13.1272
  0
LINE
  8
0
 10
24.1537
 20
-13.1272
 11
24.1281
 21
-13.335
  0
LINE
  8
0
 10
24.1281
 20
-13.335
 11
24.0954
 21
-13.5419
  0
LINE
  8
0
 10
24.0954
 20
-13.5419
 11
24.0554
 21
-13.7475
  0
LINE
  8
0
 10
24.0554
 20
-13.7475
 11
24.0083
 21
-13.9515
  0
LINE
  8
0
 10
24.0083
 20
-13.9515
 11
23.9541
 21
-14.1538
  0
LINE
  8
0
 10
23.9541
 20
-14.1538
 11
23.8929
 21
-14.3541
  0
LINE
  8
0
 10
23.8929
 20
-14.3541
 11
23.8247
 21
-14.5521
  0
LINE
  8
0
 10
23.8247
 20
-14.5521
 11
23.7496
 21
-14.7476
  0
LINE
  8
0
 10
23.7496
 20
-14.7476
 11
23.6678
 21
-14.9404
  0
LINE
  8
0
 10
23.6678
 20
-14.9404
 11
23.5793
 21
-15.1302
  0
LINE
  8
0
 10
23.5793
 20
-15.1302
 11
23.4842
 21
-15.3168
  0
LINE
  8
0
 10
23.4842
 20
-15.3168
 11
23.3827
 21
-15.5
  0
LINE
  8
0
 10
23.3827
 20
-15.5
 11
23.2748
 21
-15.6795
  0
LINE
  8
0
 10
23.2748
 20
-15.6795
 11
23.1607
 21
-15.8551
  0
LINE
  8
0
 10
23.1607
 20
-15.8551
 11
23.0406
 21
-16.0267
  0
LINE
  8
0
 10
23.0406
 20
-16.0267
 11
22.9146
 21
-16.194
  0
LINE
  8
0
 10
22.9146
 20
-16.194
 11
22.7828
 21
-16.3567
  0
LINE
  8
0
 10
22.7828
 20
-16.3567
 11
22.6454
 21
-16.5148
  0
LINE
  8
0
 10
22.6454
 20
-16.5148
 11
22.5025
 21
-16.6679
  0
LINE
  8
0
 10
22.5025
 20
-16.6679
 11
22.3545
 21
-16.816
  0
LINE
  8
0
 10
22.3545
 20
-16.816
 11
22.2013
 21
-16.9589
  0
LINE
  8
0
 10
22.2013
 20
-16.9589
 11
22.0432
 21
-17.0963
  0
LINE
  8
0
 10
22.0432
 20
-17.0963
 11
21.8805
 21
-17.2281
  0
LINE
  8
0
 10
21.8805
 20
-17.2281
 11
21.7132
 21
-17.3541
  0
LINE
  8
0
 10
21.7132
 20
-17.3541
 11
21.5417
 21
-17.4742
  0
LINE
  8
0
 10
21.5417
 20
-17.4742
 11
21.366
 21
-17.5883
  0
LINE
  8
0
 10
21.366
 20
-17.5883
 11
21.1865
 21
-17.6962
  0
LINE
  8
0
 10
21.1865
 20
-17.6962
 11
21.0033
 21
-17.7977
  0
LINE
  8
0
 10
21.0033
 20
-17.7977
 11
20.8167
 21
-17.8928
  0
LINE
  8
0
 10
20.8167
 20
-17.8928
 11
20.6269
 21
-17.9813
  0
LINE
  8
0
 10
20.6269
 20
-17.9813
 11
20.4342
 21
-18.0631
  0
LINE
  8
0
 10
20.4342
 20
-18.0631
 11
20.2386
 21
-18.1382
  0
LINE
  8
0
 10
20.2386
 20
-18.1382
 11
20.0406
 21
-18.2063
  0
LINE
  8
0
 10
20.0406
 20
-18.2063
 11
19.8403
 21
-18.2676
  0
LINE
  8
0
 10
19.8403
 20
-18.2676
 11
19.638
 21
-18.3218
  0
LINE
  8
0
 10
19.638
 20
-18.3218
 11
19.434
 21
-18.3689
  0
LINE
  8
0
 10
19.434
 20
-18.3689
 11
19.2284
 21
-18.4088
  0
LINE
  8
0
 10
19.2284
 20
-18.4088
 11
19.0216
 21
-18.4416
  0
LINE
  8
0
 10
19.0216
 20
-18.4416
 11
18.8137
 21
-18.4671
  0
LINE
  8
0
 10
18.8137
 20
-18.4671
 11
18.6051
 21
-18.4854
  0
LINE
  8
0
 10
18.6051
 20
-18.4854
 11
18.3959
 21
-18.4963
  0
LINE
  8
0
 10
18.3959
 20
-18.4963
 11
18.1865
 21
-18.5
  0
LINE
  8
0
 10
18.1865
 20
-18.5
 11
-18.2912
 21
-18.4991
  0
LINE
  8
0
 10
-51.643
 20
-30.3991
 11
-51.759
 21
-30.3879
  0
LINE
  8
0
 10
-51.759
 20
-30.3879
 11
-51.8742
 21
-30.3707
  0
LINE
  8
0
 10
-51.8742
 20
-30.3707
 11
-51.9883
 21
-30.3475
  0
LINE
  8
0
 10
-51.9883
 20
-30.3475
 11
-52.1011
 21
-30.3183
  0
LINE
  8
0
 10
-52.1011
 20
-30.3183
 11
-52.2122
 21
-30.2833
  0
LINE
  8
0
 10
-52.2122
 20
-30.2833
 11
-52.3213
 21
-30.2425
  0
LINE
  8
0
 10
-52.3213
 20
-30.2425
 11
-52.4281
 21
-30.196
  0
LINE
  8
0
 10
-52.4281
 20
-30.196
 11
-52.5324
 21
-30.144
  0
LINE
  8
0
 10
-52.5324
 20
-30.144
 11
-52.6338
 21
-30.0867
  0
LINE
  8
0
 10
-52.6338
 20
-30.0867
 11
-52.732
 21
-30.0241
  0
LINE
  8
0
 10
-52.732
 20
-30.0241
 11
-52.8268
 21
-29.9565
  0
LINE
  8
0
 10
-52.8268
 20
-29.9565
 11
-52.918
 21
-29.8839
  0
LINE
  8
0
 10
-52.918
 20
-29.8839
 11
-53.0052
 21
-29.8067
  0
LINE
  8
0
 10
-53.0052
 20
-29.8067
 11
-53.0883
 21
-29.7251
  0
LINE
  8
0
 10
-53.0883
 20
-29.7251
 11
-53.167
 21
-29.6392
  0
LINE
  8
0
 10
-53.167
 20
-29.6392
 11
-53.2411
 21
-29.5493
  0
LINE
  8
0
 10
-53.2411
 20
-29.5493
 11
-53.3104
 21
-29.4557
  0
LINE
  8
0
 10
-53.3104
 20
-29.4557
 11
-53.3747
 21
-29.3586
  0
LINE
  8
0
 10
-53.3747
 20
-29.3586
 11
-53.4338
 21
-29.2582
  0
LINE
  8
0
 10
-53.4338
 20
-29.2582
 11
-53.4876
 21
-29.1549
  0
LINE
  8
0
 10
-53.4876
 20
-29.1549
 11
-53.5359
 21
-29.0489
  0
LINE
  8
0
 10
-53.5359
 20
-29.0489
 11
-53.5786
 21
-28.9405
  0
LINE
  8
0
 10
-53.5786
 20
-28.9405
 11
-53.6156
 21
-28.83
  0
LINE
  8
0
 10
-53.6156
 20
-28.83
 11
-53.6467
 21
-28.7178
  0
LINE
  8
0
 10
-53.6467
 20
-28.7178
 11
-53.6719
 21
-28.604
  0
LINE
  8
0
 10
-53.6719
 20
-28.604
 11
-53.6911
 21
-28.4892
  0
LINE
  8
0
 10
-53.6911
 20
-28.4892
 11
-53.7043
 21
-28.3734
  0
LINE
  8
0
 10
-53.7043
 20
-28.3734
 11
-53.7114
 21
-28.2571
  0
LINE
  8
0
 10
-53.7114
 20
-28.2571
 11
-53.7125
 21
-28.1407
  0
LINE
  8
0
 10
-53.7125
 20
-28.1407
 11
-53.7074
 21
-28.0243
  0
LINE
  8
0
 10
-53.7074
 20
-28.0243
 11
-53.6962
 21
-27.9083
  0
LINE
  8
0
 10
-53.6962
 20
-27.9083
 11
-53.679
 21
-27.7931
  0
LINE
  8
0
 10
-53.679
 20
-27.7931
 11
-53.6558
 21
-27.679
  0
LINE
  8
0
 10
-53.6558
 20
-27.679
 11
-53.6266
 21
-27.5662
  0
LINE
  8
0
 10
-53.6266
 20
-27.5662
 11
-53.5916
 21
-27.4551
  0
LINE
  8
0
 10
-53.5916
 20
-27.4551
 11
-53.5508
 21
-27.346
  0
LINE
  8
0
 10
-53.5508
 20
-27.346
 11
-53.5043
 21
-27.2392
  0
LINE
  8
0
 10
-53.5043
 20
-27.2392
 11
-53.4524
 21
-27.1349
  0
LINE
  8
0
 10
-53.4524
 20
-27.1349
 11
-53.395
 21
-27.0335
  0
LINE
  8
0
 10
-53.395
 20
-27.0335
 11
-53.3324
 21
-26.9353
  0
LINE
  8
0
 10
-53.3324
 20
-26.9353
 11
-53.2648
 21
-26.8404
  0
LINE
  8
0
 10
-53.2648
 20
-26.8404
 11
-53.1922
 21
-26.7493
  0
LINE
  8
0
 10
-53.1922
 20
-26.7493
 11
-53.1151
 21
-26.662
  0
LINE
  8
0
 10
-53.1151
 20
-26.662
 11
-53.0334
 21
-26.5789
  0
LINE
  8
0
 10
-53.0334
 20
-26.5789
 11
-52.9475
 21
-26.5003
  0
LINE
  8
0
 10
-52.9475
 20
-26.5003
 11
-52.8576
 21
-26.4262
  0
LINE
  8
0
 10
-52.8576
 20
-26.4262
 11
-52.764
 21
-26.3569
  0
LINE
  8
0
 10
-52.764
 20
-26.3569
 11
-52.6669
 21
-26.2926
  0
LINE
  8
0
 10
-52.6669
 20
-26.2926
 11
-52.5665
 21
-26.2335
  0
LINE
  8
0
 10
-52.5665
 20
-26.2335
 11
-52.4632
 21
-26.1797
  0
LINE
  8
0
 10
-52.4632
 20
-26.1797
 11
-52.3572
 21
-26.1314
  0
LINE
  8
0
 10
-52.3572
 20
-26.1314
 11
-52.2488
 21
-26.0887
  0
LINE
  8
0
 10
-52.2488
 20
-26.0887
 11
-52.1383
 21
-26.0517
  0
LINE
  8
0
 10
-52.1383
 20
-26.0517
 11
-52.0261
 21
-26.0206
  0
LINE
  8
0
 10
-52.0261
 20
-26.0206
 11
-51.9124
 21
-25.9954
  0
LINE
  8
0
 10
-51.9124
 20
-25.9954
 11
-51.7975
 21
-25.9761
  0
LINE
  8
0
 10
-51.7975
 20
-25.9761
 11
-51.6817
 21
-25.963
  0
LINE
  8
0
 10
-51.6817
 20
-25.963
 11
-51.5654
 21
-25.9558
  0
LINE
  8
0
 10
-51.5654
 20
-25.9558
 11
-51.449
 21
-25.9548
  0
LINE
  8
0
 10
-51.449
 20
-25.9548
 11
-51.3326
 21
-25.9599
  0
LINE
  8
0
 10
-51.3326
 20
-25.9599
 11
-51.2166
 21
-25.9711
  0
LINE
  8
0
 10
-51.2166
 20
-25.9711
 11
-51.1014
 21
-25.9883
  0
LINE
  8
0
 10
-51.1014
 20
-25.9883
 11
-50.9873
 21
-26.0115
  0
LINE
  8
0
 10
-50.9873
 20
-26.0115
 11
-50.8745
 21
-26.0407
  0
LINE
  8
0
 10
-50.8745
 20
-26.0407
 11
-50.7634
 21
-26.0757
  0
LINE
  8
0
 10
-50.7634
 20
-26.0757
 11
-50.6543
 21
-26.1165
  0
LINE
  8
0
 10
-50.6543
 20
-26.1165
 11
-50.5475
 21
-26.1629
  0
LINE
  8
0
 10
-50.5475
 20
-26.1629
 11
-50.4432
 21
-26.2149
  0
LINE
  8
0
 10
-50.4432
 20
-26.2149
 11
-50.3418
 21
-26.2723
  0
LINE
  8
0
 10
-50.3418
 20
-26.2723
 11
-50.2436
 21
-26.3349
  0
LINE
  8
0
 10
-50.2436
 20
-26.3349
 11
-50.1488
 21
-26.4025
  0
LINE
  8
0
 10
-50.1488
 20
-26.4025
 11
-50.0576
 21
-26.475
  0
LINE
  8
0
 10
-50.0576
 20
-26.475
 11
-49.9704
 21
-26.5522
  0
LINE
  8
0
 10
-49.9704
 20
-26.5522
 11
-49.8873
 21
-26.6339
  0
LINE
  8
0
 10
-49.8873
 20
-26.6339
 11
-49.8086
 21
-26.7198
  0
LINE
  8
0
 10
-49.8086
 20
-26.7198
 11
-49.7345
 21
-26.8096
  0
LINE
  8
0
 10
-49.7345
 20
-26.8096
 11
-49.6652
 21
-26.9033
  0
LINE
  8
0
 10
-49.6652
 20
-26.9033
 11
-49.6009
 21
-27.0004
  0
LINE
  8
0
 10
-49.6009
 20
-27.0004
 11
-49.5418
 21
-27.1008
  0
LINE
  8
0
 10
-49.5418
 20
-27.1008
 11
-49.488
 21
-27.2041
  0
LINE
  8
0
 10
-49.488
 20
-27.2041
 11
-49.4397
 21
-27.3101
  0
LINE
  8
0
 10
-49.4397
 20
-27.3101
 11
-49.397
 21
-27.4185
  0
LINE
  8
0
 10
-49.397
 20
-27.4185
 11
-49.36
 21
-27.529
  0
LINE
  8
0
 10
-49.36
 20
-27.529
 11
-49.3289
 21
-27.6412
  0
LINE
  8
0
 10
-49.3289
 20
-27.6412
 11
-49.3037
 21
-27.7549
  0
LINE
  8
0
 10
-49.3037
 20
-27.7549
 11
-49.2845
 21
-27.8698
  0
LINE
  8
0
 10
-49.2845
 20
-27.8698
 11
-49.2713
 21
-27.9856
  0
LINE
  8
0
 10
-49.2713
 20
-27.9856
 11
-49.2641
 21
-28.1018
  0
LINE
  8
0
 10
-49.2641
 20
-28.1018
 11
-49.2631
 21
-28.2183
  0
LINE
  8
0
 10
-49.2631
 20
-28.2183
 11
-49.2682
 21
-28.3347
  0
LINE
  8
0
 10
-49.2682
 20
-28.3347
 11
-49.2794
 21
-28.4506
  0
LINE
  8
0
 10
-49.2794
 20
-28.4506
 11
-49.2966
 21
-28.5659
  0
LINE
  8
0
 10
-49.2966
 20
-28.5659
 11
-49.3198
 21
-28.68
  0
LINE
  8
0
 10
-49.3198
 20
-28.68
 11
-49.349
 21
-28.7928
  0
LINE
  8
0
 10
-49.349
 20
-28.7928
 11
-49.384
 21
-28.9039
  0
LINE
  8
0
 10
-49.384
 20
-28.9039
 11
-49.4248
 21
-29.013
  0
LINE
  8
0
 10
-49.4248
 20
-29.013
 11
-49.4713
 21
-29.1198
  0
LINE
  8
0
 10
-49.4713
 20
-29.1198
 11
-49.5232
 21
-29.2241
  0
LINE
  8
0
 10
-49.5232
 20
-29.2241
 11
-49.5806
 21
-29.3254
  0
LINE
  8
0
 10
-49.5806
 20
-29.3254
 11
-49.6432
 21
-29.4237
  0
LINE
  8
0
 10
-49.6432
 20
-29.4237
 11
-49.7108
 21
-29.5185
  0
LINE
  8
0
 10
-49.7108
 20
-29.5185
 11
-49.7833
 21
-29.6097
  0
LINE
  8
0
 10
-49.7833
 20
-29.6097
 11
-49.8605
 21
-29.6969
  0
LINE
  8
0
 10
-49.8605
 20
-29.6969
 11
-49.9422
 21
-29.78
  0
LINE
  8
0
 10
-49.9422
 20
-29.78
 11
-50.0281
 21
-29.8587
  0
LINE
  8
0
 10
-50.0281
 20
-29.8587
 11
-50.118
 21
-29.9328
  0
LINE
  8
0
 10
-50.118
 20
-29.9328
 11
-50.2116
 21
-30.0021
  0
LINE
  8
0
 10
-50.2116
 20
-30.0021
 11
-50.3087
 21
-30.0664
  0
LINE
  8
0
 10
-50.3087
 20
-30.0664
 11
-50.4091
 21
-30.1255
  0
LINE
  8
0
 10
-50.4091
 20
-30.1255
 11
-50.5124
 21
-30.1793
  0
LINE
  8
0
 10
-50.5124
 20
-30.1793
 11
-50.6184
 21
-30.2276
  0
LINE
  8
0
 10
-50.6184
 20
-30.2276
 11
-50.7268
 21
-30.2703
  0
LINE
  8
0
 10
-50.7268
 20
-30.2703
 11
-50.8373
 21
-30.3073
  0
LINE
  8
0
 10
-50.8373
 20
-30.3073
 11
-50.9495
 21
-30.3384
  0
LINE
  8
0
 10
-50.9495
 20
-30.3384
 11
-51.0632
 21
-30.3636
  0
LINE
  8
0
 10
-51.0632
 20
-30.3636
 11
-51.1781
 21
-30.3828
  0
LINE
  8
0
 10
-51.1781
 20
-30.3828
 11
-51.2939
 21
-30.396
  0
LINE
  8
0
 10
-51.2939
 20
-30.396
 11
-51.4101
 21
-30.4031
  0
LINE
  8
0
 10
-51.4101
 20
-30.4031
 11
-51.5266
 21
-30.4041
  0
LINE
  8
0
 10
-51.5266
 20
-30.4041
 11
-51.643
 21
-30.3991
  0
LINE
  8
0
 10
51.3326
 20
-30.3991
 11
51.2166
 21
-30.3879
  0
LINE
  8
0
 10
51.2166
 20
-30.3879
 11
51.1014
 21
-30.3707
  0
LINE
  8
0
 10
51.1014
 20
-30.3707
 11
50.9873
 21
-30.3475
  0
LINE
  8
0
 10
50.9873
 20
-30.3475
 11
50.8745
 21
-30.3183
  0
LINE
  8
0
 10
50.8745
 20
-30.3183
 11
50.7634
 21
-30.2833
  0
LINE
  8
0
 10
50.7634
 20
-30.2833
 11
50.6543
 21
-30.2425
  0
LINE
  8
0
 10
50.6543
 20
-30.2425
 11
50.5475
 21
-30.196
  0
LINE
  8
0
 10
50.5475
 20
-30.196
 11
50.4432
 21
-30.144
  0
LINE
  8
0
 10
50.4432
 20
-30.144
 11
50.3418
 21
-30.0867
  0
LINE
  8
0
 10
50.3418
 20
-30.0867
 11
50.2436
 21
-30.0241
  0
LINE
  8
0
 10
50.2436
 20
-30.0241
 11
50.1488
 21
-29.9565
  0
LINE
  8
0
 10
50.1488
 20
-29.9565
 11
50.0576
 21
-29.8839
  0
LINE
  8
0
 10
50.0576
 20
-29.8839
 11
49.9704
 21
-29.8067
  0
LINE
  8
0
 10
49.9704
 20
-29.8067
 11
49.8873
 21
-29.7251
  0
LINE
  8
0
 10
49.8873
 20
-29.7251
 11
49.8086
 21
-29.6392
  0
LINE
  8
0
 10
49.8086
 20
-29.6392
 11
49.7345
 21
-29.5493
  0
LINE
  8
0
 10
49.7345
 20
-29.5493
 11
49.6652
 21
-29.4557
  0
LINE
  8
0
 10
49.6652
 20
-29.4557
 11
49.6009
 21
-29.3586
  0
LINE
  8
0
 10
49.6009
 20
-29.3586
 11
49.5418
 21
-29.2582
  0
LINE
  8
0
 10
49.5418
 20
-29.2582
 11
49.488
 21
-29.1549
  0
LINE
  8
0
 10
49.488
 20
-29.1549
 11
49.4397
 21
-29.0489
  0
LINE
  8
0
 10
49.4397
 20
-29.0489
 11
49.397
 21
-28.9405
  0
LINE
  8
0
 10
49.397
 20
-28.9405
 11
49.36
 21
-28.83
  0
LINE
  8
0
 10
49.36
 20
-28.83
 11
49.3289
 21
-28.7178
  0
LINE
  8
0
 10
49.3289
 20
-28.7178
 11
49.3037
 21
-28.604
  0
LINE
  8
0
 10
49.3037
 20
-28.604
 11
49.2845
 21
-28.4892
  0
LINE
  8
0
 10
49.2845
 20
-28.4892
 11
49.2713
 21
-28.3734
  0
LINE
  8
0
 10
49.2713
 20
-28.3734
 11
49.2641
 21
-28.2571
  0
LINE
  8
0
 10
49.2641
 20
-28.2571
 11
49.2631
 21
-28.1407
  0
LINE
  8
0
 10
49.2631
 20
-28.1407
 11
49.2682
 21
-28.0243
  0
LINE
  8
0
 10
49.2682
 20
-28.0243
 11
49.2794
 21
-27.9083
  0
LINE
  8
0
 10
49.2794
 20
-27.9083
 11
49.2966
 21
-27.7931
  0
LINE
  8
0
 10
49.2966
 20
-27.7931
 11
49.3198
 21
-27.679
  0
LINE
  8
0
 10
49.3198
 20
-27.679
 11
49.349
 21
-27.5662
  0
LINE
  8
0
 10
49.349
 20
-27.5662
 11
49.384
 21
-27.4551
  0
LINE
  8
0
 10
49.384
 20
-27.4551
 11
49.4248
 21
-27.346
  0
LINE
  8
0
 10
49.4248
 20
-27.346
 11
49.4713
 21
-27.2392
  0
LINE
  8
0
 10
49.4713
 20
-27.2392
 11
49.5232
 21
-27.1349
  0
LINE
  8
0
 10
49.5232
 20
-27.1349
 11
49.5806
 21
-27.0335
  0
LINE
  8
0
 10
49.5806
 20
-27.0335
 11
49.6432
 21
-26.9353
  0
LINE
  8
0
 10
49.6432
 20
-26.9353
 11
49.7108
 21
-26.8404
  0
LINE
  8
0
 10
49.7108
 20
-26.8404
 11
49.7833
 21
-26.7493
  0
LINE
  8
0
 10
49.7833
 20
-26.7493
 11
49.8605
 21
-26.662
  0
LINE
  8
0
 10
49.8605
 20
-26.662
 11
49.9422
 21
-26.5789
  0
LINE
  8
0
 10
49.9422
 20
-26.5789
 11
50.0281
 21
-26.5003
  0
LINE
  8
0
 10
50.0281
 20
-26.5003
 11
50.118
 21
-26.4262
  0
LINE
  8
0
 10
50.118
 20
-26.4262
 11
50.2116
 21
-26.3569
  0
LINE
  8
0
 10
50.2116
 20
-26.3569
 11
50.3087
 21
-26.2926
  0
LINE
  8
0
 10
50.3087
 20
-26.2926
 11
50.4091
 21
-26.2335
  0
LINE
  8
0
 10
50.4091
 20
-26.2335
 11
50.5124
 21
-26.1797
  0
LINE
  8
0
 10
50.5124
 20
-26.1797
 11
50.6184
 21
-26.1314
  0
LINE
  8
0
 10
50.6184
 20
-26.1314
 11
50.7268
 21
-26.0887
  0
LINE
  8
0
 10
50.7268
 20
-26.0887
 11
50.8373
 21
-26.0517
  0
LINE
  8
0
 10
50.8373
 20
-26.0517
 11
50.9495
 21
-26.0206
  0
LINE
  8
0
 10
50.9495
 20
-26.0206
 11
51.0632
 21
-25.9954
  0
LINE
  8
0
 10
51.0632
 20
-25.9954
 11
51.1781
 21
-25.9761
  0
LINE
  8
0
 10
51.1781
 20
-25.9761
 11
51.2939
 21
-25.963
  0
LINE
  8
0
 10
51.2939
 20
-25.963
 11
51.4101
 21
-25.9558
  0
LINE
  8
0
 10
51.4101
 20
-25.9558
 11
51.5266
 21
-25.9548
  0
LINE
  8
0
 10
51.5266
 20
-25.9548
 11
51.643
 21
-25.9599
  0
LINE
  8
0
 10
51.643
 20
-25.9599
 11
51.759
 21
-25.9711
  0
LINE
  8
0
 10
51.759
 20
-25.9711
 11
51.8742
 21
-25.9883
  0
LINE
  8
0
 10
51.8742
 20
-25.9883
 11
51.9883
 21
-26.0115
  0
LINE
  8
0
 10
51.9883
 20
-26.0115
 11
52.1011
 21
-26.0407
  0
LINE
  8
0
 10
52.1011
 20
-26.0407
 11
52.2122
 21
-26.0757
  0
LINE
  8
0
 10
52.2122
 20
-26.0757
 11
52.3213
 21
-26.1165
  0
LINE
  8
0
 10
52.3213
 20
-26.1165
 11
52.4281
 21
-26.1629
  0
LINE
  8
0
 10
52.4281
 20
-26.1629
 11
52.5324
 21
-26.2149
  0
LINE
  8
0
 10
52.5324
 20
-26.2149
 11
52.6338
 21
-26.2723
  0
LINE
  8
0
 10
52.6338
 20
-26.2723
 11
52.732
 21
-26.3349
  0
LINE
  8
0
 10
52.732
 20
-26.3349
 11
52.8268
 21
-26.4025
  0
LINE
  8
0
 10
52.8268
 20
-26.4025
 11
52.918
 21
-26.475
  0
LINE
  8
0
 10
52.918
 20
-26.475
 11
53.0052
 21
-26.5522
  0
LINE
  8
0
 10
53.0052
 20
-26.5522
 11
53.0883
 21
-26.6339
  0
LINE
  8
0
 10
53.0883
 20
-26.6339
 11
53.167
 21
-26.7198
  0
LINE
  8
0
 10
53.167
 20
-26.7198
 11
53.2411
 21
-26.8096
  0
LINE
  8
0
 10
53.2411
 20
-26.8096
 11
53.3104
 21
-26.9033
  0
LINE
  8
0
 10
53.3104
 20
-26.9033
 11
53.3747
 21
-27.0004
  0
LINE
  8
0
 10
53.3747
 20
-27.0004
 11
53.4338
 21
-27.1008
  0
LINE
  8
0
 10
53.4338
 20
-27.1008
 11
53.4876
 21
-27.2041
  0
LINE
  8
0
 10
53.4876
 20
-27.2041
 11
53.5359
 21
-27.3101
  0
LINE
  8
0
 10
53.5359
 20
-27.3101
 11
53.5786
 21
-27.4185
  0
LINE
  8
0
 10
53.5786
 20
-27.4185
 11
53.6156
 21
-27.529
  0
LINE
  8
0
 10
53.6156
 20
-27.529
 11
53.6467
 21
-27.6412
  0
LINE
  8
0
 10
53.6467
 20
-27.6412
 11
53.6719
 21
-27.7549
  0
LINE
  8
0
 10
53.6719
 20
-27.7549
 11
53.6911
 21
-27.8698
  0
LINE
  8
0
 10
53.6911
 20
-27.8698
 11
53.7043
 21
-27.9856
  0
LINE
  8
0
 10
53.7043
 20
-27.9856
 11
53.7114
 21
-28.1018
  0
LINE
  8
0
 10
53.7114
 20
-28.1018
 11
53.7125
 21
-28.2183
  0
LINE
  8
0
 10
53.7125
 20
-28.2183
 11
53.7074
 21
-28.3347
  0
LINE
  8
0
 10
53.7074
 20
-28.3347
 11
53.6962
 21
-28.4506
  0
LINE
  8
0
 10
53.6962
 20
-28.4506
 11
53.679
 21
-28.5659
  0
LINE
  8
0
 10
53.679
 20
-28.5659
 11
53.6558
 21
-28.68
  0
LINE
  8
0
 10
53.6558
 20
-28.68
 11
53.6266
 21
-28.7928
  0
LINE
  8
0
 10
53.6266
 20
-28.7928
 11
53.5916
 21
-28.9039
  0
LINE
  8
0
 10
53.5916
 20
-28.9039
 11
53.5508
 21
-29.013
  0
LINE
  8
0
 10
53.5508
 20
-29.013
 11
53.5043
 21
-29.1198
  0
LINE
  8
0
 10
53.5043
 20
-29.1198
 11
53.4524
 21
-29.2241
  0
LINE
  8
0
 10
53.4524
 20
-29.2241
 11
53.395
 21
-29.3254
  0
LINE
  8
0
 10
53.395
 20
-29.3254
 11
53.3324
 21
-29.4237
  0
LINE
  8
0
 10
53.3324
 20
-29.4237
 11
53.2648
 21
-29.5185
  0
LINE
  8
0
 10
53.2648
 20
-29.5185
 11
53.1922
 21
-29.6097
  0
LINE
  8
0
 10
53.1922
 20
-29.6097
 11
53.1151
 21
-29.6969
  0
LINE
  8
0
 10
53.1151
 20
-29.6969
 11
53.0334
 21
-29.78
  0
LINE
  8
0
 10
53.0334
 20
-29.78
 11
52.9475
 21
-29.8587
  0
LINE
  8
0
 10
52.9475
 20
-29.8587
 11
52.8576
 21
-29.9328
  0
LINE
  8
0
 10
52.8576
 20
-29.9328
 11
52.764
 21
-30.0021
  0
LINE
  8
0
 10
52.764
 20
-30.0021
 11
52.6669
 21
-30.0664
  0
LINE
  8
0
 10
52.6669
 20
-30.0664
 11
52.5665
 21
-30.1255
  0
LINE
  8
0
 10
52.5665
 20
-30.1255
 11
52.4632
 21
-30.1793
  0
LINE
  8
0
 10
52.4632
 20
-30.1793
 11
52.3572
 21
-30.2276
  0
LINE
  8
0
 10
52.3572
 20
-30.2276
 11
52.2488
 21
-30.2703
  0
LINE
  8
0
 10
52.2488
 20
-30.2703
 11
52.1383
 21
-30.3073
  0
LINE
  8
0
 10
52.1383
 20
-30.3073
 11
52.0261
 21
-30.3384
  0
LINE
  8
0
 10
52.0261
 20
-30.3384
 11
51.9124
 21
-30.3636
  0
LINE
  8
0
 10
51.9124
 20
-30.3636
 11
51.7975
 21
-30.3828
  0
LINE
  8
0
 10
51.7975
 20
-30.3828
 11
51.6817
 21
-30.396
  0
LINE
  8
0
 10
51.6817
 20
-30.396
 11
51.5654
 21
-30.4031
  0
LINE
  8
0
 10
51.5654
 20
-30.4031
 11
51.449
 21
-30.4041
  0
LINE
  8
0
 10
51.449
 20
-30.4041
 11
51.3326
 21
-30.3991
  0
ENDSEC
  0
SECTION
  2
OBJECTS
  0
DICTIONARY
  0
ENDSEC
  0
EOF
