  0
SECTION
  2
BLOCKS
  0
ENDSEC
  0
SECTION
  2
ENTITIES
  0
LINE
  8
0
 10
35.074
 20
20.25
 11
35.0689
 21
20.25
  0
LINE
  8
0
 10
35.0689
 20
20.25
 11
34.86
 21
20.6162
  0
LINE
  8
0
 10
34.86
 20
20.6162
 11
34.1953
 21
21.701
  0
LINE
  8
0
 10
34.1953
 20
21.701
 11
33.4967
 21
22.7644
  0
LINE
  8
0
 10
33.4967
 20
22.7644
 11
32.7652
 21
23.8053
  0
LINE
  8
0
 10
32.7652
 20
23.8053
 11
32.0013
 21
24.8227
  0
LINE
  8
0
 10
32.0013
 20
24.8227
 11
31.2058
 21
25.8157
  0
LINE
  8
0
 10
31.2058
 20
25.8157
 11
30.3795
 21
26.7831
  0
LINE
  8
0
 10
30.3795
 20
26.7831
 11
29.5232
 21
27.7242
  0
LINE
  8
0
 10
29.5232
 20
27.7242
 11
28.6378
 21
28.6378
  0
LINE
  8
0
 10
28.6378
 20
28.6378
 11
27.7242
 21
29.5232
  0
LINE
  8
0
 10
27.7242
 20
29.5232
 11
26.7831
 21
30.3795
  0
LINE
  8
0
 10
26.7831
 20
30.3795
 11
25.8157
 21
31.2058
  0
LINE
  8
0
 10
25.8157
 20
31.2058
 11
24.8227
 21
32.0013
  0
LINE
  8
0
 10
24.8227
 20
32.0013
 11
23.8053
 21
32.7652
  0
LINE
  8
0
 10
23.8053
 20
32.7652
 11
22.7644
 21
33.4967
  0
LINE
  8
0
 10
22.7644
 20
33.4967
 11
21.701
 21
34.1953
  0
LINE
  8
0
 10
21.701
 20
34.1953
 11
20.6162
 21
34.86
  0
LINE
  8
0
 10
20.6162
 20
34.86
 11
19.511
 21
35.4904
  0
LINE
  8
0
 10
19.511
 20
35.4904
 11
18.3866
 21
36.0858
  0
LINE
  8
0
 10
18.3866
 20
36.0858
 11
17.244
 21
36.6455
  0
LINE
  8
0
 10
17.244
 20
36.6455
 11
16.0845
 21
37.1691
  0
LINE
  8
0
 10
16.0845
 20
37.1691
 11
14.909
 21
37.6559
  0
LINE
  8
0
 10
14.909
 20
37.6559
 11
13.7189
 21
38.1057
  0
LINE
  8
0
 10
13.7189
 20
38.1057
 11
12.5152
 21
38.5178
  0
LINE
  8
0
 10
12.5152
 20
38.5178
 11
11.2991
 21
38.8919
  0
LINE
  8
0
 10
11.2991
 20
38.8919
 11
10.0719
 21
39.2276
  0
LINE
  8
0
 10
10.0719
 20
39.2276
 11
8.83479
 21
39.5246
  0
LINE
  8
0
 10
8.83479
 20
39.5246
 11
7.58893
 21
39.7826
  0
LINE
  8
0
 10
7.58893
 20
39.7826
 11
6.33559
 21
40.0014
  0
LINE
  8
0
 10
6.33559
 20
40.0014
 11
5.07599
 21
40.1806
  0
LINE
  8
0
 10
5.07599
 20
40.1806
 11
3.81139
 21
40.3203
  0
LINE
  8
0
 10
3.81139
 20
40.3203
 11
2.54301
 21
40.4201
  0
LINE
  8
0
 10
2.54301
 20
40.4201
 11
1.27213
 21
40.48
  0
LINE
  8
0
 10
1.27213
 20
40.48
 11
0
 21
40.5
  0
LINE
  8
0
 10
0
 20
40.5
 11
-1.27213
 21
40.48
  0
LINE
  8
0
 10
-1.27213
 20
40.48
 11
-2.54301
 21
40.4201
  0
LINE
  8
0
 10
-2.54301
 20
40.4201
 11
-3.81139
 21
40.3203
  0
LINE
  8
0
 10
-3.81139
 20
40.3203
 11
-5.07599
 21
40.1806
  0
LINE
  8
0
 10
-5.07599
 20
40.1806
 11
-6.33559
 21
40.0014
  0
LINE
  8
0
 10
-6.33559
 20
40.0014
 11
-7.58893
 21
39.7826
  0
LINE
  8
0
 10
-7.58893
 20
39.7826
 11
-8.83479
 21
39.5246
  0
LINE
  8
0
 10
-8.83479
 20
39.5246
 11
-10.0719
 21
39.2276
  0
LINE
  8
0
 10
-10.0719
 20
39.2276
 11
-11.2991
 21
38.8919
  0
LINE
  8
0
 10
-11.2991
 20
38.8919
 11
-12.5152
 21
38.5178
  0
LINE
  8
0
 10
-12.5152
 20
38.5178
 11
-13.7189
 21
38.1057
  0
LINE
  8
0
 10
-13.7189
 20
38.1057
 11
-14.909
 21
37.6559
  0
LINE
  8
0
 10
-14.909
 20
37.6559
 11
-16.0845
 21
37.1691
  0
LINE
  8
0
 10
-16.0845
 20
37.1691
 11
-17.244
 21
36.6455
  0
LINE
  8
0
 10
-17.244
 20
36.6455
 11
-18.3866
 21
36.0858
  0
LINE
  8
0
 10
-18.3866
 20
36.0858
 11
-19.511
 21
35.4904
  0
LINE
  8
0
 10
-19.511
 20
35.4904
 11
-20.6162
 21
34.86
  0
LINE
  8
0
 10
-20.6162
 20
34.86
 11
-21.701
 21
34.1953
  0
LINE
  8
0
 10
-21.701
 20
34.1953
 11
-22.7644
 21
33.4967
  0
LINE
  8
0
 10
-22.7644
 20
33.4967
 11
-23.8053
 21
32.7652
  0
LINE
  8
0
 10
-23.8053
 20
32.7652
 11
-24.8227
 21
32.0013
  0
LINE
  8
0
 10
-24.8227
 20
32.0013
 11
-25.8157
 21
31.2058
  0
LINE
  8
0
 10
-25.8157
 20
31.2058
 11
-26.7831
 21
30.3795
  0
LINE
  8
0
 10
-26.7831
 20
30.3795
 11
-27.7242
 21
29.5232
  0
LINE
  8
0
 10
-27.7242
 20
29.5232
 11
-28.6378
 21
28.6378
  0
LINE
  8
0
 10
-28.6378
 20
28.6378
 11
-29.5232
 21
27.7242
  0
LINE
  8
0
 10
-29.5232
 20
27.7242
 11
-30.3795
 21
26.7831
  0
LINE
  8
0
 10
-30.3795
 20
26.7831
 11
-31.2058
 21
25.8157
  0
LINE
  8
0
 10
-31.2058
 20
25.8157
 11
-32.0013
 21
24.8227
  0
LINE
  8
0
 10
-32.0013
 20
24.8227
 11
-32.7652
 21
23.8053
  0
LINE
  8
0
 10
-32.7652
 20
23.8053
 11
-33.4967
 21
22.7644
  0
LINE
  8
0
 10
-33.4967
 20
22.7644
 11
-34.1953
 21
21.701
  0
LINE
  8
0
 10
-34.1953
 20
21.701
 11
-34.86
 21
20.6162
  0
LINE
  8
0
 10
-34.86
 20
20.6162
 11
-35.0689
 21
20.25
  0
LINE
  8
0
 10
-35.0689
 20
20.25
 11
-35.074
 21
20.25
  0
LINE
  8
0
 10
-35.074
 20
20.25
 11
-70.1481
 21
-40.5
  0
LINE
  8
0
 10
-70.1481
 20
-40.5
 11
70.1481
 21
-40.5
  0
LINE
  8
0
 10
70.1481
 20
-40.5
 11
35.074
 21
20.25
  0
LINE
  8
0
 10
0.0475464
 20
21.7754
 11
-0.0950928
 21
21.7767
  0
LINE
  8
0
 10
-0.0950928
 20
21.7767
 11
-0.237488
 21
21.7854
  0
LINE
  8
0
 10
-0.237488
 20
21.7854
 11
-0.379242
 21
21.8015
  0
LINE
  8
0
 10
-0.379242
 20
21.8015
 11
-0.519943
 21
21.8251
  0
LINE
  8
0
 10
-0.519943
 20
21.8251
 11
-0.659225
 21
21.8559
  0
LINE
  8
0
 10
-0.659225
 20
21.8559
 11
-0.796707
 21
21.8941
  0
LINE
  8
0
 10
-0.796707
 20
21.8941
 11
-0.931992
 21
21.9393
  0
LINE
  8
0
 10
-0.931992
 20
21.9393
 11
-1.06473
 21
21.9916
  0
LINE
  8
0
 10
-1.06473
 20
21.9916
 11
-1.19455
 21
22.0508
  0
LINE
  8
0
 10
-1.19455
 20
22.0508
 11
-1.32111
 21
22.1167
  0
LINE
  8
0
 10
-1.32111
 20
22.1167
 11
-1.44402
 21
22.1891
  0
LINE
  8
0
 10
-1.44402
 20
22.1891
 11
-1.56299
 21
22.2678
  0
LINE
  8
0
 10
-1.56299
 20
22.2678
 11
-1.67767
 21
22.3527
  0
LINE
  8
0
 10
-1.67767
 20
22.3527
 11
-1.78775
 21
22.4434
  0
LINE
  8
0
 10
-1.78775
 20
22.4434
 11
-1.89293
 21
22.5398
  0
LINE
  8
0
 10
-1.89293
 20
22.5398
 11
-1.99294
 21
22.6415
  0
LINE
  8
0
 10
-1.99294
 20
22.6415
 11
-2.08746
 21
22.7484
  0
LINE
  8
0
 10
-2.08746
 20
22.7484
 11
-2.17627
 21
22.86
  0
LINE
  8
0
 10
-2.17627
 20
22.86
 11
-2.25912
 21
22.9762
  0
LINE
  8
0
 10
-2.25912
 20
22.9762
 11
-2.33577
 21
23.0965
  0
LINE
  8
0
 10
-2.33577
 20
23.0965
 11
-2.40602
 21
23.2207
  0
LINE
  8
0
 10
-2.40602
 20
23.2207
 11
-2.46968
 21
23.3484
  0
LINE
  8
0
 10
-2.46968
 20
23.3484
 11
-2.52657
 21
23.4792
  0
LINE
  8
0
 10
-2.52657
 20
23.4792
 11
-2.57654
 21
23.6128
  0
LINE
  8
0
 10
-2.57654
 20
23.6128
 11
-2.61943
 21
23.7489
  0
LINE
  8
0
 10
-2.61943
 20
23.7489
 11
-2.65515
 21
23.887
  0
LINE
  8
0
 10
-2.65515
 20
23.887
 11
-2.68359
 21
24.0268
  0
LINE
  8
0
 10
-2.68359
 20
24.0268
 11
-2.70468
 21
24.1679
  0
LINE
  8
0
 10
-2.70468
 20
24.1679
 11
-2.71835
 21
24.3099
  0
LINE
  8
0
 10
-2.71835
 20
24.3099
 11
-2.72458
 21
24.4524
  0
LINE
  8
0
 10
-2.72458
 20
24.4524
 11
-2.72333
 21
24.5951
  0
LINE
  8
0
 10
-2.72333
 20
24.5951
 11
-2.71463
 21
24.7375
  0
LINE
  8
0
 10
-2.71463
 20
24.7375
 11
-2.69847
 21
24.8792
  0
LINE
  8
0
 10
-2.69847
 20
24.8792
 11
-2.67493
 21
25.0199
  0
LINE
  8
0
 10
-2.67493
 20
25.0199
 11
-2.64404
 21
25.1592
  0
LINE
  8
0
 10
-2.64404
 20
25.1592
 11
-2.60593
 21
25.2967
  0
LINE
  8
0
 10
-2.60593
 20
25.2967
 11
-2.56065
 21
25.432
  0
LINE
  8
0
 10
-2.56065
 20
25.432
 11
-2.50836
 21
25.5647
  0
LINE
  8
0
 10
-2.50836
 20
25.5647
 11
-2.4492
 21
25.6945
  0
LINE
  8
0
 10
-2.4492
 20
25.6945
 11
-2.38333
 21
25.8211
  0
LINE
  8
0
 10
-2.38333
 20
25.8211
 11
-2.31093
 21
25.944
  0
LINE
  8
0
 10
-2.31093
 20
25.944
 11
-2.23218
 21
26.063
  0
LINE
  8
0
 10
-2.23218
 20
26.063
 11
-2.14732
 21
26.1777
  0
LINE
  8
0
 10
-2.14732
 20
26.1777
 11
-2.05658
 21
26.2878
  0
LINE
  8
0
 10
-2.05658
 20
26.2878
 11
-1.96019
 21
26.3929
  0
LINE
  8
0
 10
-1.96019
 20
26.3929
 11
-1.85844
 21
26.4929
  0
LINE
  8
0
 10
-1.85844
 20
26.4929
 11
-1.75159
 21
26.5875
  0
LINE
  8
0
 10
-1.75159
 20
26.5875
 11
-1.63994
 21
26.6763
  0
LINE
  8
0
 10
-1.63994
 20
26.6763
 11
-1.52379
 21
26.7591
  0
LINE
  8
0
 10
-1.52379
 20
26.7591
 11
-1.40347
 21
26.8358
  0
LINE
  8
0
 10
-1.40347
 20
26.8358
 11
-1.2793
 21
26.906
  0
LINE
  8
0
 10
-1.2793
 20
26.906
 11
-1.15163
 21
26.9697
  0
LINE
  8
0
 10
-1.15163
 20
26.9697
 11
-1.0208
 21
27.0266
  0
LINE
  8
0
 10
-1.0208
 20
27.0266
 11
-0.887161
 21
27.0765
  0
LINE
  8
0
 10
-0.887161
 20
27.0765
 11
-0.751099
 21
27.1194
  0
LINE
  8
0
 10
-0.751099
 20
27.1194
 11
-0.612991
 21
27.1552
  0
LINE
  8
0
 10
-0.612991
 20
27.1552
 11
-0.47319
 21
27.1836
  0
LINE
  8
0
 10
-0.47319
 20
27.1836
 11
-0.332092
 21
27.2047
  0
LINE
  8
0
 10
-0.332092
 20
27.2047
 11
-0.190079
 21
27.2184
  0
LINE
  8
0
 10
-0.190079
 20
27.2184
 11
-0.0475464
 21
27.2246
  0
LINE
  8
0
 10
-0.0475464
 20
27.2246
 11
0.0950928
 21
27.2233
  0
LINE
  8
0
 10
0.0950928
 20
27.2233
 11
0.237488
 21
27.2146
  0
LINE
  8
0
 10
0.237488
 20
27.2146
 11
0.379242
 21
27.1985
  0
LINE
  8
0
 10
0.379242
 20
27.1985
 11
0.519943
 21
27.1749
  0
LINE
  8
0
 10
0.519943
 20
27.1749
 11
0.659225
 21
27.144
  0
LINE
  8
0
 10
0.659225
 20
27.144
 11
0.796707
 21
27.1059
  0
LINE
  8
0
 10
0.796707
 20
27.1059
 11
0.931992
 21
27.0607
  0
LINE
  8
0
 10
0.931992
 20
27.0607
 11
1.06473
 21
27.0084
  0
LINE
  8
0
 10
1.06473
 20
27.0084
 11
1.19455
 21
26.9492
  0
LINE
  8
0
 10
1.19455
 20
26.9492
 11
1.32111
 21
26.8833
  0
LINE
  8
0
 10
1.32111
 20
26.8833
 11
1.44402
 21
26.8109
  0
LINE
  8
0
 10
1.44402
 20
26.8109
 11
1.56299
 21
26.7322
  0
LINE
  8
0
 10
1.56299
 20
26.7322
 11
1.67767
 21
26.6473
  0
LINE
  8
0
 10
1.67767
 20
26.6473
 11
1.78775
 21
26.5566
  0
LINE
  8
0
 10
1.78775
 20
26.5566
 11
1.89293
 21
26.4602
  0
LINE
  8
0
 10
1.89293
 20
26.4602
 11
1.99294
 21
26.3584
  0
LINE
  8
0
 10
1.99294
 20
26.3584
 11
2.08746
 21
26.2516
  0
LINE
  8
0
 10
2.08746
 20
26.2516
 11
2.17627
 21
26.1399
  0
LINE
  8
0
 10
2.17627
 20
26.1399
 11
2.25912
 21
26.0238
  0
LINE
  8
0
 10
2.25912
 20
26.0238
 11
2.33577
 21
25.9035
  0
LINE
  8
0
 10
2.33577
 20
25.9035
 11
2.40602
 21
25.7793
  0
LINE
  8
0
 10
2.40602
 20
25.7793
 11
2.46968
 21
25.6516
  0
LINE
  8
0
 10
2.46968
 20
25.6516
 11
2.52657
 21
25.5208
  0
LINE
  8
0
 10
2.52657
 20
25.5208
 11
2.57654
 21
25.3872
  0
LINE
  8
0
 10
2.57654
 20
25.3872
 11
2.61943
 21
25.2511
  0
LINE
  8
0
 10
2.61943
 20
25.2511
 11
2.65515
 21
25.113
  0
LINE
  8
0
 10
2.65515
 20
25.113
 11
2.68359
 21
24.9732
  0
LINE
  8
0
 10
2.68359
 20
24.9732
 11
2.70468
 21
24.8321
  0
LINE
  8
0
 10
2.70468
 20
24.8321
 11
2.71835
 21
24.6901
  0
LINE
  8
0
 10
2.71835
 20
24.6901
 11
2.72458
 21
24.5475
  0
LINE
  8
0
 10
2.72458
 20
24.5475
 11
2.72333
 21
24.4049
  0
LINE
  8
0
 10
2.72333
 20
24.4049
 11
2.71463
 21
24.2625
  0
LINE
  8
0
 10
2.71463
 20
24.2625
 11
2.69847
 21
24.1207
  0
LINE
  8
0
 10
2.69847
 20
24.1207
 11
2.67493
 21
23.98
  0
LINE
  8
0
 10
2.67493
 20
23.98
 11
2.64404
 21
23.8408
  0
LINE
  8
0
 10
2.64404
 20
23.8408
 11
2.60593
 21
23.7033
  0
LINE
  8
0
 10
2.60593
 20
23.7033
 11
2.56065
 21
23.568
  0
LINE
  8
0
 10
2.56065
 20
23.568
 11
2.50836
 21
23.4353
  0
LINE
  8
0
 10
2.50836
 20
23.4353
 11
2.4492
 21
23.3054
  0
LINE
  8
0
 10
2.4492
 20
23.3054
 11
2.38333
 21
23.1789
  0
LINE
  8
0
 10
2.38333
 20
23.1789
 11
2.31093
 21
23.056
  0
LINE
  8
0
 10
2.31093
 20
23.056
 11
2.23218
 21
22.937
  0
LINE
  8
0
 10
2.23218
 20
22.937
 11
2.14732
 21
22.8223
  0
LINE
  8
0
 10
2.14732
 20
22.8223
 11
2.05658
 21
22.7122
  0
LINE
  8
0
 10
2.05658
 20
22.7122
 11
1.96019
 21
22.6071
  0
LINE
  8
0
 10
1.96019
 20
22.6071
 11
1.85844
 21
22.507
  0
LINE
  8
0
 10
1.85844
 20
22.507
 11
1.75159
 21
22.4125
  0
LINE
  8
0
 10
1.75159
 20
22.4125
 11
1.63994
 21
22.3237
  0
LINE
  8
0
 10
1.63994
 20
22.3237
 11
1.52379
 21
22.2409
  0
LINE
  8
0
 10
1.52379
 20
22.2409
 11
1.40347
 21
22.1642
  0
LINE
  8
0
 10
1.40347
 20
22.1642
 11
1.2793
 21
22.094
  0
LINE
  8
0
 10
1.2793
 20
22.094
 11
1.15163
 21
22.0303
  0
LINE
  8
0
 10
1.15163
 20
22.0303
 11
1.0208
 21
21.9734
  0
LINE
  8
0
 10
1.0208
 20
21.9734
 11
0.887161
 21
21.9234
  0
LINE
  8
0
 10
0.887161
 20
21.9234
 11
0.751099
 21
21.8806
  0
LINE
  8
0
 10
0.751099
 20
21.8806
 11
0.612991
 21
21.8448
  0
LINE
  8
0
 10
0.612991
 20
21.8448
 11
0.47319
 21
21.8164
  0
LINE
  8
0
 10
0.47319
 20
21.8164
 11
0.332092
 21
21.7953
  0
LINE
  8
0
 10
0.332092
 20
21.7953
 11
0.190079
 21
21.7816
  0
LINE
  8
0
 10
0.190079
 20
21.7816
 11
0.0475464
 21
21.7754
  0
LINE
  8
0
 10
-31.643
 20
4.24196
 11
-31.759
 21
4.25311
  0
LINE
  8
0
 10
-31.759
 20
4.25311
 11
-31.8742
 21
4.27034
  0
LINE
  8
0
 10
-31.8742
 20
4.27034
 11
-31.9883
 21
4.29356
  0
LINE
  8
0
 10
-31.9883
 20
4.29356
 11
-32.1011
 21
4.32272
  0
LINE
  8
0
 10
-32.1011
 20
4.32272
 11
-32.2122
 21
4.35776
  0
LINE
  8
0
 10
-32.2122
 20
4.35776
 11
-32.3213
 21
4.39854
  0
LINE
  8
0
 10
-32.3213
 20
4.39854
 11
-32.4281
 21
4.44499
  0
LINE
  8
0
 10
-32.4281
 20
4.44499
 11
-32.5324
 21
4.49698
  0
LINE
  8
0
 10
-32.5324
 20
4.49698
 11
-32.6338
 21
4.55434
  0
LINE
  8
0
 10
-32.6338
 20
4.55434
 11
-32.732
 21
4.61693
  0
LINE
  8
0
 10
-32.732
 20
4.61693
 11
-32.8268
 21
4.68457
  0
LINE
  8
0
 10
-32.8268
 20
4.68457
 11
-32.918
 21
4.75708
  0
LINE
  8
0
 10
-32.918
 20
4.75708
 11
-33.0052
 21
4.83427
  0
LINE
  8
0
 10
-33.0052
 20
4.83427
 11
-33.0883
 21
4.91592
  0
LINE
  8
0
 10
-33.0883
 20
4.91592
 11
-33.167
 21
5.0018
  0
LINE
  8
0
 10
-33.167
 20
5.0018
 11
-33.2411
 21
5.09169
  0
LINE
  8
0
 10
-33.2411
 20
5.09169
 11
-33.3104
 21
5.18532
  0
LINE
  8
0
 10
-33.3104
 20
5.18532
 11
-33.3747
 21
5.28246
  0
LINE
  8
0
 10
-33.3747
 20
5.28246
 11
-33.4338
 21
5.38283
  0
LINE
  8
0
 10
-33.4338
 20
5.38283
 11
-33.4876
 21
5.48616
  0
LINE
  8
0
 10
-33.4876
 20
5.48616
 11
-33.5359
 21
5.59215
  0
LINE
  8
0
 10
-33.5359
 20
5.59215
 11
-33.5786
 21
5.70053
  0
LINE
  8
0
 10
-33.5786
 20
5.70053
 11
-33.6156
 21
5.811
  0
LINE
  8
0
 10
-33.6156
 20
5.811
 11
-33.6467
 21
5.92325
  0
LINE
  8
0
 10
-33.6467
 20
5.92325
 11
-33.6719
 21
6.03699
  0
LINE
  8
0
 10
-33.6719
 20
6.03699
 11
-33.6911
 21
6.15187
  0
LINE
  8
0
 10
-33.6911
 20
6.15187
 11
-33.7043
 21
6.26761
  0
LINE
  8
0
 10
-33.7043
 20
6.26761
 11
-33.7114
 21
6.38388
  0
LINE
  8
0
 10
-33.7114
 20
6.38388
 11
-33.7125
 21
6.50037
  0
LINE
  8
0
 10
-33.7125
 20
6.50037
 11
-33.7074
 21
6.61674
  0
LINE
  8
0
 10
-33.7074
 20
6.61674
 11
-33.6962
 21
6.7327
  0
LINE
  8
0
 10
-33.6962
 20
6.7327
 11
-33.679
 21
6.8479
  0
LINE
  8
0
 10
-33.679
 20
6.8479
 11
-33.6558
 21
6.96205
  0
LINE
  8
0
 10
-33.6558
 20
6.96205
 11
-33.6266
 21
7.07483
  0
LINE
  8
0
 10
-33.6266
 20
7.07483
 11
-33.5916
 21
7.18593
  0
LINE
  8
0
 10
-33.5916
 20
7.18593
 11
-33.5508
 21
7.29503
  0
LINE
  8
0
 10
-33.5508
 20
7.29503
 11
-33.5043
 21
7.40186
  0
LINE
  8
0
 10
-33.5043
 20
7.40186
 11
-33.4524
 21
7.5061
  0
LINE
  8
0
 10
-33.4524
 20
7.5061
 11
-33.395
 21
7.6075
  0
LINE
  8
0
 10
-33.395
 20
7.6075
 11
-33.3324
 21
7.70573
  0
LINE
  8
0
 10
-33.3324
 20
7.70573
 11
-33.2648
 21
7.80057
  0
LINE
  8
0
 10
-33.2648
 20
7.80057
 11
-33.1922
 21
7.89174
  0
LINE
  8
0
 10
-33.1922
 20
7.89174
 11
-33.1151
 21
7.97897
  0
LINE
  8
0
 10
-33.1151
 20
7.97897
 11
-33.0334
 21
8.06206
  0
LINE
  8
0
 10
-33.0334
 20
8.06206
 11
-32.9475
 21
8.14076
  0
LINE
  8
0
 10
-32.9475
 20
8.14076
 11
-32.8576
 21
8.21486
  0
LINE
  8
0
 10
-32.8576
 20
8.21486
 11
-32.764
 21
8.28415
  0
LINE
  8
0
 10
-32.764
 20
8.28415
 11
-32.6669
 21
8.34843
  0
LINE
  8
0
 10
-32.6669
 20
8.34843
 11
-32.5665
 21
8.40756
  0
LINE
  8
0
 10
-32.5665
 20
8.40756
 11
-32.4632
 21
8.46135
  0
LINE
  8
0
 10
-32.4632
 20
8.46135
 11
-32.3572
 21
8.50966
  0
LINE
  8
0
 10
-32.3572
 20
8.50966
 11
-32.2488
 21
8.55235
  0
LINE
  8
0
 10
-32.2488
 20
8.55235
 11
-32.1383
 21
8.58931
  0
LINE
  8
0
 10
-32.1383
 20
8.58931
 11
-32.0261
 21
8.62044
  0
LINE
  8
0
 10
-32.0261
 20
8.62044
 11
-31.9124
 21
8.64565
  0
LINE
  8
0
 10
-31.9124
 20
8.64565
 11
-31.7975
 21
8.66487
  0
LINE
  8
0
 10
-31.7975
 20
8.66487
 11
-31.6817
 21
8.67807
  0
LINE
  8
0
 10
-31.6817
 20
8.67807
 11
-31.5654
 21
8.68518
  0
LINE
  8
0
 10
-31.5654
 20
8.68518
 11
-31.449
 21
8.68619
  0
LINE
  8
0
 10
-31.449
 20
8.68619
 11
-31.3326
 21
8.68111
  0
LINE
  8
0
 10
-31.3326
 20
8.68111
 11
-31.2166
 21
8.66995
  0
LINE
  8
0
 10
-31.2166
 20
8.66995
 11
-31.1014
 21
8.65273
  0
LINE
  8
0
 10
-31.1014
 20
8.65273
 11
-30.9873
 21
8.6295
  0
LINE
  8
0
 10
-30.9873
 20
8.6295
 11
-30.8745
 21
8.60034
  0
LINE
  8
0
 10
-30.8745
 20
8.60034
 11
-30.7634
 21
8.56531
  0
LINE
  8
0
 10
-30.7634
 20
8.56531
 11
-30.6543
 21
8.52452
  0
LINE
  8
0
 10
-30.6543
 20
8.52452
 11
-30.5475
 21
8.47807
  0
LINE
  8
0
 10
-30.5475
 20
8.47807
 11
-30.4432
 21
8.42609
  0
LINE
  8
0
 10
-30.4432
 20
8.42609
 11
-30.3418
 21
8.36873
  0
LINE
  8
0
 10
-30.3418
 20
8.36873
 11
-30.2436
 21
8.30614
  0
LINE
  8
0
 10
-30.2436
 20
8.30614
 11
-30.1488
 21
8.23849
  0
LINE
  8
0
 10
-30.1488
 20
8.23849
 11
-30.0576
 21
8.16599
  0
LINE
  8
0
 10
-30.0576
 20
8.16599
 11
-29.9704
 21
8.08879
  0
LINE
  8
0
 10
-29.9704
 20
8.08879
 11
-29.8873
 21
8.00714
  0
LINE
  8
0
 10
-29.8873
 20
8.00714
 11
-29.8086
 21
7.92126
  0
LINE
  8
0
 10
-29.8086
 20
7.92126
 11
-29.7345
 21
7.83138
  0
LINE
  8
0
 10
-29.7345
 20
7.83138
 11
-29.6652
 21
7.73773
  0
LINE
  8
0
 10
-29.6652
 20
7.73773
 11
-29.6009
 21
7.64061
  0
LINE
  8
0
 10
-29.6009
 20
7.64061
 11
-29.5418
 21
7.54024
  0
LINE
  8
0
 10
-29.5418
 20
7.54024
 11
-29.488
 21
7.4369
  0
LINE
  8
0
 10
-29.488
 20
7.4369
 11
-29.4397
 21
7.3309
  0
LINE
  8
0
 10
-29.4397
 20
7.3309
 11
-29.397
 21
7.22253
  0
LINE
  8
0
 10
-29.397
 20
7.22253
 11
-29.36
 21
7.11206
  0
LINE
  8
0
 10
-29.36
 20
7.11206
 11
-29.3289
 21
6.9998
  0
LINE
  8
0
 10
-29.3289
 20
6.9998
 11
-29.3037
 21
6.88608
  0
LINE
  8
0
 10
-29.3037
 20
6.88608
 11
-29.2845
 21
6.77119
  0
LINE
  8
0
 10
-29.2845
 20
6.77119
 11
-29.2713
 21
6.65546
  0
LINE
  8
0
 10
-29.2713
 20
6.65546
 11
-29.2641
 21
6.53918
  0
LINE
  8
0
 10
-29.2641
 20
6.53918
 11
-29.2631
 21
6.4227
  0
LINE
  8
0
 10
-29.2631
 20
6.4227
 11
-29.2682
 21
6.30632
  0
LINE
  8
0
 10
-29.2682
 20
6.30632
 11
-29.2794
 21
6.19037
  0
LINE
  8
0
 10
-29.2794
 20
6.19037
 11
-29.2966
 21
6.07516
  0
LINE
  8
0
 10
-29.2966
 20
6.07516
 11
-29.3198
 21
5.96101
  0
LINE
  8
0
 10
-29.3198
 20
5.96101
 11
-29.349
 21
5.84824
  0
LINE
  8
0
 10
-29.349
 20
5.84824
 11
-29.384
 21
5.73714
  0
LINE
  8
0
 10
-29.384
 20
5.73714
 11
-29.4248
 21
5.62804
  0
LINE
  8
0
 10
-29.4248
 20
5.62804
 11
-29.4713
 21
5.52121
  0
LINE
  8
0
 10
-29.4713
 20
5.52121
 11
-29.5232
 21
5.41696
  0
LINE
  8
0
 10
-29.5232
 20
5.41696
 11
-29.5806
 21
5.31557
  0
LINE
  8
0
 10
-29.5806
 20
5.31557
 11
-29.6432
 21
5.21733
  0
LINE
  8
0
 10
-29.6432
 20
5.21733
 11
-29.7108
 21
5.1225
  0
LINE
  8
0
 10
-29.7108
 20
5.1225
 11
-29.7833
 21
5.03133
  0
LINE
  8
0
 10
-29.7833
 20
5.03133
 11
-29.8605
 21
4.94409
  0
LINE
  8
0
 10
-29.8605
 20
4.94409
 11
-29.9422
 21
4.86101
  0
LINE
  8
0
 10
-29.9422
 20
4.86101
 11
-30.0281
 21
4.7823
  0
LINE
  8
0
 10
-30.0281
 20
4.7823
 11
-30.118
 21
4.70821
  0
LINE
  8
0
 10
-30.118
 20
4.70821
 11
-30.2116
 21
4.63892
  0
LINE
  8
0
 10
-30.2116
 20
4.63892
 11
-30.3087
 21
4.57463
  0
LINE
  8
0
 10
-30.3087
 20
4.57463
 11
-30.4091
 21
4.5155
  0
LINE
  8
0
 10
-30.4091
 20
4.5155
 11
-30.5124
 21
4.46172
  0
LINE
  8
0
 10
-30.5124
 20
4.46172
 11
-30.6184
 21
4.41341
  0
LINE
  8
0
 10
-30.6184
 20
4.41341
 11
-30.7268
 21
4.37071
  0
LINE
  8
0
 10
-30.7268
 20
4.37071
 11
-30.8373
 21
4.33376
  0
LINE
  8
0
 10
-30.8373
 20
4.33376
 11
-30.9495
 21
4.30263
  0
LINE
  8
0
 10
-30.9495
 20
4.30263
 11
-31.0632
 21
4.2774
  0
LINE
  8
0
 10
-31.0632
 20
4.2774
 11
-31.1781
 21
4.25818
  0
LINE
  8
0
 10
-31.1781
 20
4.25818
 11
-31.2939
 21
4.245
  0
LINE
  8
0
 10
-31.2939
 20
4.245
 11
-31.4101
 21
4.23788
  0
LINE
  8
0
 10
-31.4101
 20
4.23788
 11
-31.5266
 21
4.23688
  0
LINE
  8
0
 10
-31.5266
 20
4.23688
 11
-31.643
 21
4.24196
  0
LINE
  8
0
 10
31.3326
 20
4.24196
 11
31.2166
 21
4.25311
  0
LINE
  8
0
 10
31.2166
 20
4.25311
 11
31.1014
 21
4.27034
  0
LINE
  8
0
 10
31.1014
 20
4.27034
 11
30.9873
 21
4.29356
  0
LINE
  8
0
 10
30.9873
 20
4.29356
 11
30.8745
 21
4.32272
  0
LINE
  8
0
 10
30.8745
 20
4.32272
 11
30.7634
 21
4.35776
  0
LINE
  8
0
 10
30.7634
 20
4.35776
 11
30.6543
 21
4.39854
  0
LINE
  8
0
 10
30.6543
 20
4.39854
 11
30.5475
 21
4.44499
  0
LINE
  8
0
 10
30.5475
 20
4.44499
 11
30.4432
 21
4.49698
  0
LINE
  8
0
 10
30.4432
 20
4.49698
 11
30.3418
 21
4.55434
  0
LINE
  8
0
 10
30.3418
 20
4.55434
 11
30.2436
 21
4.61693
  0
LINE
  8
0
 10
30.2436
 20
4.61693
 11
30.1488
 21
4.68457
  0
LINE
  8
0
 10
30.1488
 20
4.68457
 11
30.0576
 21
4.75708
  0
LINE
  8
0
 10
30.0576
 20
4.75708
 11
29.9704
 21
4.83427
  0
LINE
  8
0
 10
29.9704
 20
4.83427
 11
29.8873
 21
4.91592
  0
LINE
  8
0
 10
29.8873
 20
4.91592
 11
29.8086
 21
5.0018
  0
LINE
  8
0
 10
29.8086
 20
5.0018
 11
29.7345
 21
5.09169
  0
LINE
  8
0
 10
29.7345
 20
5.09169
 11
29.6652
 21
5.18532
  0
LINE
  8
0
 10
29.6652
 20
5.18532
 11
29.6009
 21
5.28246
  0
LINE
  8
0
 10
29.6009
 20
5.28246
 11
29.5418
 21
5.38283
  0
LINE
  8
0
 10
29.5418
 20
5.38283
 11
29.488
 21
5.48616
  0
LINE
  8
0
 10
29.488
 20
5.48616
 11
29.4397
 21
5.59215
  0
LINE
  8
0
 10
29.4397
 20
5.59215
 11
29.397
 21
5.70053
  0
LINE
  8
0
 10
29.397
 20
5.70053
 11
29.36
 21
5.811
  0
LINE
  8
0
 10
29.36
 20
5.811
 11
29.3289
 21
5.92325
  0
LINE
  8
0
 10
29.3289
 20
5.92325
 11
29.3037
 21
6.03699
  0
LINE
  8
0
 10
29.3037
 20
6.03699
 11
29.2845
 21
6.15187
  0
LINE
  8
0
 10
29.2845
 20
6.15187
 11
29.2713
 21
6.26761
  0
LINE
  8
0
 10
29.2713
 20
6.26761
 11
29.2641
 21
6.38388
  0
LINE
  8
0
 10
29.2641
 20
6.38388
 11
29.2631
 21
6.50037
  0
LINE
  8
0
 10
29.2631
 20
6.50037
 11
29.2682
 21
6.61674
  0
LINE
  8
0
 10
29.2682
 20
6.61674
 11
29.2794
 21
6.7327
  0
LINE
  8
0
 10
29.2794
 20
6.7327
 11
29.2966
 21
6.8479
  0
LINE
  8
0
 10
29.2966
 20
6.8479
 11
29.3198
 21
6.96205
  0
LINE
  8
0
 10
29.3198
 20
6.96205
 11
29.349
 21
7.07483
  0
LINE
  8
0
 10
29.349
 20
7.07483
 11
29.384
 21
7.18593
  0
LINE
  8
0
 10
29.384
 20
7.18593
 11
29.4248
 21
7.29503
  0
LINE
  8
0
 10
29.4248
 20
7.29503
 11
29.4713
 21
7.40186
  0
LINE
  8
0
 10
29.4713
 20
7.40186
 11
29.5232
 21
7.5061
  0
LINE
  8
0
 10
29.5232
 20
7.5061
 11
29.5806
 21
7.6075
  0
LINE
  8
0
 10
29.5806
 20
7.6075
 11
29.6432
 21
7.70573
  0
LINE
  8
0
 10
29.6432
 20
7.70573
 11
29.7108
 21
7.80057
  0
LINE
  8
0
 10
29.7108
 20
7.80057
 11
29.7833
 21
7.89174
  0
LINE
  8
0
 10
29.7833
 20
7.89174
 11
29.8605
 21
7.97897
  0
LINE
  8
0
 10
29.8605
 20
7.97897
 11
29.9422
 21
8.06206
  0
LINE
  8
0
 10
29.9422
 20
8.06206
 11
30.0281
 21
8.14076
  0
LINE
  8
0
 10
30.0281
 20
8.14076
 11
30.118
 21
8.21486
  0
LINE
  8
0
 10
30.118
 20
8.21486
 11
30.2116
 21
8.28415
  0
LINE
  8
0
 10
30.2116
 20
8.28415
 11
30.3087
 21
8.34843
  0
LINE
  8
0
 10
30.3087
 20
8.34843
 11
30.4091
 21
8.40756
  0
LINE
  8
0
 10
30.4091
 20
8.40756
 11
30.5124
 21
8.46135
  0
LINE
  8
0
 10
30.5124
 20
8.46135
 11
30.6184
 21
8.50966
  0
LINE
  8
0
 10
30.6184
 20
8.50966
 11
30.7268
 21
8.55235
  0
LINE
  8
0
 10
30.7268
 20
8.55235
 11
30.8373
 21
8.58931
  0
LINE
  8
0
 10
30.8373
 20
8.58931
 11
30.9495
 21
8.62044
  0
LINE
  8
0
 10
30.9495
 20
8.62044
 11
31.0632
 21
8.64565
  0
LINE
  8
0
 10
31.0632
 20
8.64565
 11
31.1781
 21
8.66487
  0
LINE
  8
0
 10
31.1781
 20
8.66487
 11
31.2939
 21
8.67807
  0
LINE
  8
0
 10
31.2939
 20
8.67807
 11
31.4101
 21
8.68518
  0
LINE
  8
0
 10
31.4101
 20
8.68518
 11
31.5266
 21
8.68619
  0
LINE
  8
0
 10
31.5266
 20
8.68619
 11
31.643
 21
8.68111
  0
LINE
  8
0
 10
31.643
 20
8.68111
 11
31.759
 21
8.66995
  0
LINE
  8
0
 10
31.759
 20
8.66995
 11
31.8742
 21
8.65273
  0
LINE
  8
0
 10
31.8742
 20
8.65273
 11
31.9883
 21
8.6295
  0
LINE
  8
0
 10
31.9883
 20
8.6295
 11
32.1011
 21
8.60034
  0
LINE
  8
0
 10
32.1011
 20
8.60034
 11
32.2122
 21
8.56531
  0
LINE
  8
0
 10
32.2122
 20
8.56531
 11
32.3213
 21
8.52452
  0
LINE
  8
0
 10
32.3213
 20
8.52452
 11
32.4281
 21
8.47807
  0
LINE
  8
0
 10
32.4281
 20
8.47807
 11
32.5324
 21
8.42609
  0
LINE
  8
0
 10
32.5324
 20
8.42609
 11
32.6338
 21
8.36873
  0
LINE
  8
0
 10
32.6338
 20
8.36873
 11
32.732
 21
8.30614
  0
LINE
  8
0
 10
32.732
 20
8.30614
 11
32.8268
 21
8.23849
  0
LINE
  8
0
 10
32.8268
 20
8.23849
 11
32.918
 21
8.16599
  0
LINE
  8
0
 10
32.918
 20
8.16599
 11
33.0052
 21
8.08879
  0
LINE
  8
0
 10
33.0052
 20
8.08879
 11
33.0883
 21
8.00714
  0
LINE
  8
0
 10
33.0883
 20
8.00714
 11
33.167
 21
7.92126
  0
LINE
  8
0
 10
33.167
 20
7.92126
 11
33.2411
 21
7.83138
  0
LINE
  8
0
 10
33.2411
 20
7.83138
 11
33.3104
 21
7.73773
  0
LINE
  8
0
 10
33.3104
 20
7.73773
 11
33.3747
 21
7.64061
  0
LINE
  8
0
 10
33.3747
 20
7.64061
 11
33.4338
 21
7.54024
  0
LINE
  8
0
 10
33.4338
 20
7.54024
 11
33.4876
 21
7.4369
  0
LINE
  8
0
 10
33.4876
 20
7.4369
 11
33.5359
 21
7.3309
  0
LINE
  8
0
 10
33.5359
 20
7.3309
 11
33.5786
 21
7.22253
  0
LINE
  8
0
 10
33.5786
 20
7.22253
 11
33.6156
 21
7.11206
  0
LINE
  8
0
 10
33.6156
 20
7.11206
 11
33.6467
 21
6.9998
  0
LINE
  8
0
 10
33.6467
 20
6.9998
 11
33.6719
 21
6.88608
  0
LINE
  8
0
 10
33.6719
 20
6.88608
 11
33.6911
 21
6.77119
  0
LINE
  8
0
 10
33.6911
 20
6.77119
 11
33.7043
 21
6.65546
  0
LINE
  8
0
 10
33.7043
 20
6.65546
 11
33.7114
 21
6.53918
  0
LINE
  8
0
 10
33.7114
 20
6.53918
 11
33.7125
 21
6.4227
  0
LINE
  8
0
 10
33.7125
 20
6.4227
 11
33.7074
 21
6.30632
  0
LINE
  8
0
 10
33.7074
 20
6.30632
 11
33.6962
 21
6.19037
  0
LINE
  8
0
 10
33.6962
 20
6.19037
 11
33.679
 21
6.07516
  0
LINE
  8
0
 10
33.679
 20
6.07516
 11
33.6558
 21
5.96101
  0
LINE
  8
0
 10
33.6558
 20
5.96101
 11
33.6266
 21
5.84824
  0
LINE
  8
0
 10
33.6266
 20
5.84824
 11
33.5916
 21
5.73714
  0
LINE
  8
0
 10
33.5916
 20
5.73714
 11
33.5508
 21
5.62804
  0
LINE
  8
0
 10
33.5508
 20
5.62804
 11
33.5043
 21
5.52121
  0
LINE
  8
0
 10
33.5043
 20
5.52121
 11
33.4524
 21
5.41696
  0
LINE
  8
0
 10
33.4524
 20
5.41696
 11
33.395
 21
5.31557
  0
LINE
  8
0
 10
33.395
 20
5.31557
 11
33.3324
 21
5.21733
  0
LINE
  8
0
 10
33.3324
 20
5.21733
 11
33.2648
 21
5.1225
  0
LINE
  8
0
 10
33.2648
 20
5.1225
 11
33.1922
 21
5.03133
  0
LINE
  8
0
 10
33.1922
 20
5.03133
 11
33.1151
 21
4.94409
  0
LINE
  8
0
 10
33.1151
 20
4.94409
 11
33.0334
 21
4.86101
  0
LINE
  8
0
 10
33.0334
 20
4.86101
 11
32.9475
 21
4.7823
  0
LINE
  8
0
 10
32.9475
 20
4.7823
 11
32.8576
 21
4.70821
  0
LINE
  8
0
 10
32.8576
 20
4.70821
 11
32.764
 21
4.63892
  0
LINE
  8
0
 10
32.764
 20
4.63892
 11
32.6669
 21
4.57463
  0
LINE
  8
0
 10
32.6669
 20
4.57463
 11
32.5665
 21
4.5155
  0
LINE
  8
0
 10
32.5665
 20
4.5155
 11
32.4632
 21
4.46172
  0
LINE
  8
0
 10
32.4632
 20
4.46172
 11
32.3572
 21
4.41341
  0
LINE
  8
0
 10
32.3572
 20
4.41341
 11
32.2488
 21
4.37071
  0
LINE
  8
0
 10
32.2488
 20
4.37071
 11
32.1383
 21
4.33376
  0
LINE
  8
0
 10
32.1383
 20
4.33376
 11
32.0261
 21
4.30263
  0
LINE
  8
0
 10
32.0261
 20
4.30263
 11
31.9124
 21
4.2774
  0
LINE
  8
0
 10
31.9124
 20
4.2774
 11
31.7975
 21
4.25818
  0
LINE
  8
0
 10
31.7975
 20
4.25818
 11
31.6817
 21
4.245
  0
LINE
  8
0
 10
31.6817
 20
4.245
 11
31.5654
 21
4.23788
  0
LINE
  8
0
 10
31.5654
 20
4.23788
 11
31.449
 21
4.23688
  0
LINE
  8
0
 10
31.449
 20
4.23688
 11
31.3326
 21
4.24196
  0
LINE
  8
0
 10
-51.643
 20
-30.3991
 11
-51.759
 21
-30.3879
  0
LINE
  8
0
 10
-51.759
 20
-30.3879
 11
-51.8742
 21
-30.3707
  0
LINE
  8
0
 10
-51.8742
 20
-30.3707
 11
-51.9883
 21
-30.3475
  0
LINE
  8
0
 10
-51.9883
 20
-30.3475
 11
-52.1011
 21
-30.3183
  0
LINE
  8
0
 10
-52.1011
 20
-30.3183
 11
-52.2122
 21
-30.2833
  0
LINE
  8
0
 10
-52.2122
 20
-30.2833
 11
-52.3213
 21
-30.2425
  0
LINE
  8
0
 10
-52.3213
 20
-30.2425
 11
-52.4281
 21
-30.196
  0
LINE
  8
0
 10
-52.4281
 20
-30.196
 11
-52.5324
 21
-30.144
  0
LINE
  8
0
 10
-52.5324
 20
-30.144
 11
-52.6338
 21
-30.0867
  0
LINE
  8
0
 10
-52.6338
 20
-30.0867
 11
-52.732
 21
-30.0241
  0
LINE
  8
0
 10
-52.732
 20
-30.0241
 11
-52.8268
 21
-29.9565
  0
LINE
  8
0
 10
-52.8268
 20
-29.9565
 11
-52.918
 21
-29.8839
  0
LINE
  8
0
 10
-52.918
 20
-29.8839
 11
-53.0052
 21
-29.8067
  0
LINE
  8
0
 10
-53.0052
 20
-29.8067
 11
-53.0883
 21
-29.7251
  0
LINE
  8
0
 10
-53.0883
 20
-29.7251
 11
-53.167
 21
-29.6392
  0
LINE
  8
0
 10
-53.167
 20
-29.6392
 11
-53.2411
 21
-29.5493
  0
LINE
  8
0
 10
-53.2411
 20
-29.5493
 11
-53.3104
 21
-29.4557
  0
LINE
  8
0
 10
-53.3104
 20
-29.4557
 11
-53.3747
 21
-29.3586
  0
LINE
  8
0
 10
-53.3747
 20
-29.3586
 11
-53.4338
 21
-29.2582
  0
LINE
  8
0
 10
-53.4338
 20
-29.2582
 11
-53.4876
 21
-29.1549
  0
LINE
  8
0
 10
-53.4876
 20
-29.1549
 11
-53.5359
 21
-29.0489
  0
LINE
  8
0
 10
-53.5359
 20
-29.0489
 11
-53.5786
 21
-28.9405
  0
LINE
  8
0
 10
-53.5786
 20
-28.9405
 11
-53.6156
 21
-28.83
  0
LINE
  8
0
 10
-53.6156
 20
-28.83
 11
-53.6467
 21
-28.7178
  0
LINE
  8
0
 10
-53.6467
 20
-28.7178
 11
-53.6719
 21
-28.604
  0
LINE
  8
0
 10
-53.6719
 20
-28.604
 11
-53.6911
 21
-28.4892
  0
LINE
  8
0
 10
-53.6911
 20
-28.4892
 11
-53.7043
 21
-28.3734
  0
LINE
  8
0
 10
-53.7043
 20
-28.3734
 11
-53.7114
 21
-28.2571
  0
LINE
  8
0
 10
-53.7114
 20
-28.2571
 11
-53.7125
 21
-28.1407
  0
LINE
  8
0
 10
-53.7125
 20
-28.1407
 11
-53.7074
 21
-28.0243
  0
LINE
  8
0
 10
-53.7074
 20
-28.0243
 11
-53.6962
 21
-27.9083
  0
LINE
  8
0
 10
-53.6962
 20
-27.9083
 11
-53.679
 21
-27.7931
  0
LINE
  8
0
 10
-53.679
 20
-27.7931
 11
-53.6558
 21
-27.679
  0
LINE
  8
0
 10
-53.6558
 20
-27.679
 11
-53.6266
 21
-27.5662
  0
LINE
  8
0
 10
-53.6266
 20
-27.5662
 11
-53.5916
 21
-27.4551
  0
LINE
  8
0
 10
-53.5916
 20
-27.4551
 11
-53.5508
 21
-27.346
  0
LINE
  8
0
 10
-53.5508
 20
-27.346
 11
-53.5043
 21
-27.2392
  0
LINE
  8
0
 10
-53.5043
 20
-27.2392
 11
-53.4524
 21
-27.1349
  0
LINE
  8
0
 10
-53.4524
 20
-27.1349
 11
-53.395
 21
-27.0335
  0
LINE
  8
0
 10
-53.395
 20
-27.0335
 11
-53.3324
 21
-26.9353
  0
LINE
  8
0
 10
-53.3324
 20
-26.9353
 11
-53.2648
 21
-26.8404
  0
LINE
  8
0
 10
-53.2648
 20
-26.8404
 11
-53.1922
 21
-26.7493
  0
LINE
  8
0
 10
-53.1922
 20
-26.7493
 11
-53.1151
 21
-26.662
  0
LINE
  8
0
 10
-53.1151
 20
-26.662
 11
-53.0334
 21
-26.5789
  0
LINE
  8
0
 10
-53.0334
 20
-26.5789
 11
-52.9475
 21
-26.5003
  0
LINE
  8
0
 10
-52.9475
 20
-26.5003
 11
-52.8576
 21
-26.4262
  0
LINE
  8
0
 10
-52.8576
 20
-26.4262
 11
-52.764
 21
-26.3569
  0
LINE
  8
0
 10
-52.764
 20
-26.3569
 11
-52.6669
 21
-26.2926
  0
LINE
  8
0
 10
-52.6669
 20
-26.2926
 11
-52.5665
 21
-26.2335
  0
LINE
  8
0
 10
-52.5665
 20
-26.2335
 11
-52.4632
 21
-26.1797
  0
LINE
  8
0
 10
-52.4632
 20
-26.1797
 11
-52.3572
 21
-26.1314
  0
LINE
  8
0
 10
-52.3572
 20
-26.1314
 11
-52.2488
 21
-26.0887
  0
LINE
  8
0
 10
-52.2488
 20
-26.0887
 11
-52.1383
 21
-26.0517
  0
LINE
  8
0
 10
-52.1383
 20
-26.0517
 11
-52.0261
 21
-26.0206
  0
LINE
  8
0
 10
-52.0261
 20
-26.0206
 11
-51.9124
 21
-25.9954
  0
LINE
  8
0
 10
-51.9124
 20
-25.9954
 11
-51.7975
 21
-25.9761
  0
LINE
  8
0
 10
-51.7975
 20
-25.9761
 11
-51.6817
 21
-25.963
  0
LINE
  8
0
 10
-51.6817
 20
-25.963
 11
-51.5654
 21
-25.9558
  0
LINE
  8
0
 10
-51.5654
 20
-25.9558
 11
-51.449
 21
-25.9548
  0
LINE
  8
0
 10
-51.449
 20
-25.9548
 11
-51.3326
 21
-25.9599
  0
LINE
  8
0
 10
-51.3326
 20
-25.9599
 11
-51.2166
 21
-25.9711
  0
LINE
  8
0
 10
-51.2166
 20
-25.9711
 11
-51.1014
 21
-25.9883
  0
LINE
  8
0
 10
-51.1014
 20
-25.9883
 11
-50.9873
 21
-26.0115
  0
LINE
  8
0
 10
-50.9873
 20
-26.0115
 11
-50.8745
 21
-26.0407
  0
LINE
  8
0
 10
-50.8745
 20
-26.0407
 11
-50.7634
 21
-26.0757
  0
LINE
  8
0
 10
-50.7634
 20
-26.0757
 11
-50.6543
 21
-26.1165
  0
LINE
  8
0
 10
-50.6543
 20
-26.1165
 11
-50.5475
 21
-26.1629
  0
LINE
  8
0
 10
-50.5475
 20
-26.1629
 11
-50.4432
 21
-26.2149
  0
LINE
  8
0
 10
-50.4432
 20
-26.2149
 11
-50.3418
 21
-26.2723
  0
LINE
  8
0
 10
-50.3418
 20
-26.2723
 11
-50.2436
 21
-26.3349
  0
LINE
  8
0
 10
-50.2436
 20
-26.3349
 11
-50.1488
 21
-26.4025
  0
LINE
  8
0
 10
-50.1488
 20
-26.4025
 11
-50.0576
 21
-26.475
  0
LINE
  8
0
 10
-50.0576
 20
-26.475
 11
-49.9704
 21
-26.5522
  0
LINE
  8
0
 10
-49.9704
 20
-26.5522
 11
-49.8873
 21
-26.6339
  0
LINE
  8
0
 10
-49.8873
 20
-26.6339
 11
-49.8086
 21
-26.7198
  0
LINE
  8
0
 10
-49.8086
 20
-26.7198
 11
-49.7345
 21
-26.8096
  0
LINE
  8
0
 10
-49.7345
 20
-26.8096
 11
-49.6652
 21
-26.9033
  0
LINE
  8
0
 10
-49.6652
 20
-26.9033
 11
-49.6009
 21
-27.0004
  0
LINE
  8
0
 10
-49.6009
 20
-27.0004
 11
-49.5418
 21
-27.1008
  0
LINE
  8
0
 10
-49.5418
 20
-27.1008
 11
-49.488
 21
-27.2041
  0
LINE
  8
0
 10
-49.488
 20
-27.2041
 11
-49.4397
 21
-27.3101
  0
LINE
  8
0
 10
-49.4397
 20
-27.3101
 11
-49.397
 21
-27.4185
  0
LINE
  8
0
 10
-49.397
 20
-27.4185
 11
-49.36
 21
-27.529
  0
LINE
  8
0
 10
-49.36
 20
-27.529
 11
-49.3289
 21
-27.6412
  0
LINE
  8
0
 10
-49.3289
 20
-27.6412
 11
-49.3037
 21
-27.7549
  0
LINE
  8
0
 10
-49.3037
 20
-27.7549
 11
-49.2845
 21
-27.8698
  0
LINE
  8
0
 10
-49.2845
 20
-27.8698
 11
-49.2713
 21
-27.9856
  0
LINE
  8
0
 10
-49.2713
 20
-27.9856
 11
-49.2641
 21
-28.1018
  0
LINE
  8
0
 10
-49.2641
 20
-28.1018
 11
-49.2631
 21
-28.2183
  0
LINE
  8
0
 10
-49.2631
 20
-28.2183
 11
-49.2682
 21
-28.3347
  0
LINE
  8
0
 10
-49.2682
 20
-28.3347
 11
-49.2794
 21
-28.4506
  0
LINE
  8
0
 10
-49.2794
 20
-28.4506
 11
-49.2966
 21
-28.5659
  0
LINE
  8
0
 10
-49.2966
 20
-28.5659
 11
-49.3198
 21
-28.68
  0
LINE
  8
0
 10
-49.3198
 20
-28.68
 11
-49.349
 21
-28.7928
  0
LINE
  8
0
 10
-49.349
 20
-28.7928
 11
-49.384
 21
-28.9039
  0
LINE
  8
0
 10
-49.384
 20
-28.9039
 11
-49.4248
 21
-29.013
  0
LINE
  8
0
 10
-49.4248
 20
-29.013
 11
-49.4713
 21
-29.1198
  0
LINE
  8
0
 10
-49.4713
 20
-29.1198
 11
-49.5232
 21
-29.2241
  0
LINE
  8
0
 10
-49.5232
 20
-29.2241
 11
-49.5806
 21
-29.3254
  0
LINE
  8
0
 10
-49.5806
 20
-29.3254
 11
-49.6432
 21
-29.4237
  0
LINE
  8
0
 10
-49.6432
 20
-29.4237
 11
-49.7108
 21
-29.5185
  0
LINE
  8
0
 10
-49.7108
 20
-29.5185
 11
-49.7833
 21
-29.6097
  0
LINE
  8
0
 10
-49.7833
 20
-29.6097
 11
-49.8605
 21
-29.6969
  0
LINE
  8
0
 10
-49.8605
 20
-29.6969
 11
-49.9422
 21
-29.78
  0
LINE
  8
0
 10
-49.9422
 20
-29.78
 11
-50.0281
 21
-29.8587
  0
LINE
  8
0
 10
-50.0281
 20
-29.8587
 11
-50.118
 21
-29.9328
  0
LINE
  8
0
 10
-50.118
 20
-29.9328
 11
-50.2116
 21
-30.0021
  0
LINE
  8
0
 10
-50.2116
 20
-30.0021
 11
-50.3087
 21
-30.0664
  0
LINE
  8
0
 10
-50.3087
 20
-30.0664
 11
-50.4091
 21
-30.1255
  0
LINE
  8
0
 10
-50.4091
 20
-30.1255
 11
-50.5124
 21
-30.1793
  0
LINE
  8
0
 10
-50.5124
 20
-30.1793
 11
-50.6184
 21
-30.2276
  0
LINE
  8
0
 10
-50.6184
 20
-30.2276
 11
-50.7268
 21
-30.2703
  0
LINE
  8
0
 10
-50.7268
 20
-30.2703
 11
-50.8373
 21
-30.3073
  0
LINE
  8
0
 10
-50.8373
 20
-30.3073
 11
-50.9495
 21
-30.3384
  0
LINE
  8
0
 10
-50.9495
 20
-30.3384
 11
-51.0632
 21
-30.3636
  0
LINE
  8
0
 10
-51.0632
 20
-30.3636
 11
-51.1781
 21
-30.3828
  0
LINE
  8
0
 10
-51.1781
 20
-30.3828
 11
-51.2939
 21
-30.396
  0
LINE
  8
0
 10
-51.2939
 20
-30.396
 11
-51.4101
 21
-30.4031
  0
LINE
  8
0
 10
-51.4101
 20
-30.4031
 11
-51.5266
 21
-30.4041
  0
LINE
  8
0
 10
-51.5266
 20
-30.4041
 11
-51.643
 21
-30.3991
  0
LINE
  8
0
 10
51.3326
 20
-30.3991
 11
51.2166
 21
-30.3879
  0
LINE
  8
0
 10
51.2166
 20
-30.3879
 11
51.1014
 21
-30.3707
  0
LINE
  8
0
 10
51.1014
 20
-30.3707
 11
50.9873
 21
-30.3475
  0
LINE
  8
0
 10
50.9873
 20
-30.3475
 11
50.8745
 21
-30.3183
  0
LINE
  8
0
 10
50.8745
 20
-30.3183
 11
50.7634
 21
-30.2833
  0
LINE
  8
0
 10
50.7634
 20
-30.2833
 11
50.6543
 21
-30.2425
  0
LINE
  8
0
 10
50.6543
 20
-30.2425
 11
50.5475
 21
-30.196
  0
LINE
  8
0
 10
50.5475
 20
-30.196
 11
50.4432
 21
-30.144
  0
LINE
  8
0
 10
50.4432
 20
-30.144
 11
50.3418
 21
-30.0867
  0
LINE
  8
0
 10
50.3418
 20
-30.0867
 11
50.2436
 21
-30.0241
  0
LINE
  8
0
 10
50.2436
 20
-30.0241
 11
50.1488
 21
-29.9565
  0
LINE
  8
0
 10
50.1488
 20
-29.9565
 11
50.0576
 21
-29.8839
  0
LINE
  8
0
 10
50.0576
 20
-29.8839
 11
49.9704
 21
-29.8067
  0
LINE
  8
0
 10
49.9704
 20
-29.8067
 11
49.8873
 21
-29.7251
  0
LINE
  8
0
 10
49.8873
 20
-29.7251
 11
49.8086
 21
-29.6392
  0
LINE
  8
0
 10
49.8086
 20
-29.6392
 11
49.7345
 21
-29.5493
  0
LINE
  8
0
 10
49.7345
 20
-29.5493
 11
49.6652
 21
-29.4557
  0
LINE
  8
0
 10
49.6652
 20
-29.4557
 11
49.6009
 21
-29.3586
  0
LINE
  8
0
 10
49.6009
 20
-29.3586
 11
49.5418
 21
-29.2582
  0
LINE
  8
0
 10
49.5418
 20
-29.2582
 11
49.488
 21
-29.1549
  0
LINE
  8
0
 10
49.488
 20
-29.1549
 11
49.4397
 21
-29.0489
  0
LINE
  8
0
 10
49.4397
 20
-29.0489
 11
49.397
 21
-28.9405
  0
LINE
  8
0
 10
49.397
 20
-28.9405
 11
49.36
 21
-28.83
  0
LINE
  8
0
 10
49.36
 20
-28.83
 11
49.3289
 21
-28.7178
  0
LINE
  8
0
 10
49.3289
 20
-28.7178
 11
49.3037
 21
-28.604
  0
LINE
  8
0
 10
49.3037
 20
-28.604
 11
49.2845
 21
-28.4892
  0
LINE
  8
0
 10
49.2845
 20
-28.4892
 11
49.2713
 21
-28.3734
  0
LINE
  8
0
 10
49.2713
 20
-28.3734
 11
49.2641
 21
-28.2571
  0
LINE
  8
0
 10
49.2641
 20
-28.2571
 11
49.2631
 21
-28.1407
  0
LINE
  8
0
 10
49.2631
 20
-28.1407
 11
49.2682
 21
-28.0243
  0
LINE
  8
0
 10
49.2682
 20
-28.0243
 11
49.2794
 21
-27.9083
  0
LINE
  8
0
 10
49.2794
 20
-27.9083
 11
49.2966
 21
-27.7931
  0
LINE
  8
0
 10
49.2966
 20
-27.7931
 11
49.3198
 21
-27.679
  0
LINE
  8
0
 10
49.3198
 20
-27.679
 11
49.349
 21
-27.5662
  0
LINE
  8
0
 10
49.349
 20
-27.5662
 11
49.384
 21
-27.4551
  0
LINE
  8
0
 10
49.384
 20
-27.4551
 11
49.4248
 21
-27.346
  0
LINE
  8
0
 10
49.4248
 20
-27.346
 11
49.4713
 21
-27.2392
  0
LINE
  8
0
 10
49.4713
 20
-27.2392
 11
49.5232
 21
-27.1349
  0
LINE
  8
0
 10
49.5232
 20
-27.1349
 11
49.5806
 21
-27.0335
  0
LINE
  8
0
 10
49.5806
 20
-27.0335
 11
49.6432
 21
-26.9353
  0
LINE
  8
0
 10
49.6432
 20
-26.9353
 11
49.7108
 21
-26.8404
  0
LINE
  8
0
 10
49.7108
 20
-26.8404
 11
49.7833
 21
-26.7493
  0
LINE
  8
0
 10
49.7833
 20
-26.7493
 11
49.8605
 21
-26.662
  0
LINE
  8
0
 10
49.8605
 20
-26.662
 11
49.9422
 21
-26.5789
  0
LINE
  8
0
 10
49.9422
 20
-26.5789
 11
50.0281
 21
-26.5003
  0
LINE
  8
0
 10
50.0281
 20
-26.5003
 11
50.118
 21
-26.4262
  0
LINE
  8
0
 10
50.118
 20
-26.4262
 11
50.2116
 21
-26.3569
  0
LINE
  8
0
 10
50.2116
 20
-26.3569
 11
50.3087
 21
-26.2926
  0
LINE
  8
0
 10
50.3087
 20
-26.2926
 11
50.4091
 21
-26.2335
  0
LINE
  8
0
 10
50.4091
 20
-26.2335
 11
50.5124
 21
-26.1797
  0
LINE
  8
0
 10
50.5124
 20
-26.1797
 11
50.6184
 21
-26.1314
  0
LINE
  8
0
 10
50.6184
 20
-26.1314
 11
50.7268
 21
-26.0887
  0
LINE
  8
0
 10
50.7268
 20
-26.0887
 11
50.8373
 21
-26.0517
  0
LINE
  8
0
 10
50.8373
 20
-26.0517
 11
50.9495
 21
-26.0206
  0
LINE
  8
0
 10
50.9495
 20
-26.0206
 11
51.0632
 21
-25.9954
  0
LINE
  8
0
 10
51.0632
 20
-25.9954
 11
51.1781
 21
-25.9761
  0
LINE
  8
0
 10
51.1781
 20
-25.9761
 11
51.2939
 21
-25.963
  0
LINE
  8
0
 10
51.2939
 20
-25.963
 11
51.4101
 21
-25.9558
  0
LINE
  8
0
 10
51.4101
 20
-25.9558
 11
51.5266
 21
-25.9548
  0
LINE
  8
0
 10
51.5266
 20
-25.9548
 11
51.643
 21
-25.9599
  0
LINE
  8
0
 10
51.643
 20
-25.9599
 11
51.759
 21
-25.9711
  0
LINE
  8
0
 10
51.759
 20
-25.9711
 11
51.8742
 21
-25.9883
  0
LINE
  8
0
 10
51.8742
 20
-25.9883
 11
51.9883
 21
-26.0115
  0
LINE
  8
0
 10
51.9883
 20
-26.0115
 11
52.1011
 21
-26.0407
  0
LINE
  8
0
 10
52.1011
 20
-26.0407
 11
52.2122
 21
-26.0757
  0
LINE
  8
0
 10
52.2122
 20
-26.0757
 11
52.3213
 21
-26.1165
  0
LINE
  8
0
 10
52.3213
 20
-26.1165
 11
52.4281
 21
-26.1629
  0
LINE
  8
0
 10
52.4281
 20
-26.1629
 11
52.5324
 21
-26.2149
  0
LINE
  8
0
 10
52.5324
 20
-26.2149
 11
52.6338
 21
-26.2723
  0
LINE
  8
0
 10
52.6338
 20
-26.2723
 11
52.732
 21
-26.3349
  0
LINE
  8
0
 10
52.732
 20
-26.3349
 11
52.8268
 21
-26.4025
  0
LINE
  8
0
 10
52.8268
 20
-26.4025
 11
52.918
 21
-26.475
  0
LINE
  8
0
 10
52.918
 20
-26.475
 11
53.0052
 21
-26.5522
  0
LINE
  8
0
 10
53.0052
 20
-26.5522
 11
53.0883
 21
-26.6339
  0
LINE
  8
0
 10
53.0883
 20
-26.6339
 11
53.167
 21
-26.7198
  0
LINE
  8
0
 10
53.167
 20
-26.7198
 11
53.2411
 21
-26.8096
  0
LINE
  8
0
 10
53.2411
 20
-26.8096
 11
53.3104
 21
-26.9033
  0
LINE
  8
0
 10
53.3104
 20
-26.9033
 11
53.3747
 21
-27.0004
  0
LINE
  8
0
 10
53.3747
 20
-27.0004
 11
53.4338
 21
-27.1008
  0
LINE
  8
0
 10
53.4338
 20
-27.1008
 11
53.4876
 21
-27.2041
  0
LINE
  8
0
 10
53.4876
 20
-27.2041
 11
53.5359
 21
-27.3101
  0
LINE
  8
0
 10
53.5359
 20
-27.3101
 11
53.5786
 21
-27.4185
  0
LINE
  8
0
 10
53.5786
 20
-27.4185
 11
53.6156
 21
-27.529
  0
LINE
  8
0
 10
53.6156
 20
-27.529
 11
53.6467
 21
-27.6412
  0
LINE
  8
0
 10
53.6467
 20
-27.6412
 11
53.6719
 21
-27.7549
  0
LINE
  8
0
 10
53.6719
 20
-27.7549
 11
53.6911
 21
-27.8698
  0
LINE
  8
0
 10
53.6911
 20
-27.8698
 11
53.7043
 21
-27.9856
  0
LINE
  8
0
 10
53.7043
 20
-27.9856
 11
53.7114
 21
-28.1018
  0
LINE
  8
0
 10
53.7114
 20
-28.1018
 11
53.7125
 21
-28.2183
  0
LINE
  8
0
 10
53.7125
 20
-28.2183
 11
53.7074
 21
-28.3347
  0
LINE
  8
0
 10
53.7074
 20
-28.3347
 11
53.6962
 21
-28.4506
  0
LINE
  8
0
 10
53.6962
 20
-28.4506
 11
53.679
 21
-28.5659
  0
LINE
  8
0
 10
53.679
 20
-28.5659
 11
53.6558
 21
-28.68
  0
LINE
  8
0
 10
53.6558
 20
-28.68
 11
53.6266
 21
-28.7928
  0
LINE
  8
0
 10
53.6266
 20
-28.7928
 11
53.5916
 21
-28.9039
  0
LINE
  8
0
 10
53.5916
 20
-28.9039
 11
53.5508
 21
-29.013
  0
LINE
  8
0
 10
53.5508
 20
-29.013
 11
53.5043
 21
-29.1198
  0
LINE
  8
0
 10
53.5043
 20
-29.1198
 11
53.4524
 21
-29.2241
  0
LINE
  8
0
 10
53.4524
 20
-29.2241
 11
53.395
 21
-29.3254
  0
LINE
  8
0
 10
53.395
 20
-29.3254
 11
53.3324
 21
-29.4237
  0
LINE
  8
0
 10
53.3324
 20
-29.4237
 11
53.2648
 21
-29.5185
  0
LINE
  8
0
 10
53.2648
 20
-29.5185
 11
53.1922
 21
-29.6097
  0
LINE
  8
0
 10
53.1922
 20
-29.6097
 11
53.1151
 21
-29.6969
  0
LINE
  8
0
 10
53.1151
 20
-29.6969
 11
53.0334
 21
-29.78
  0
LINE
  8
0
 10
53.0334
 20
-29.78
 11
52.9475
 21
-29.8587
  0
LINE
  8
0
 10
52.9475
 20
-29.8587
 11
52.8576
 21
-29.9328
  0
LINE
  8
0
 10
52.8576
 20
-29.9328
 11
52.764
 21
-30.0021
  0
LINE
  8
0
 10
52.764
 20
-30.0021
 11
52.6669
 21
-30.0664
  0
LINE
  8
0
 10
52.6669
 20
-30.0664
 11
52.5665
 21
-30.1255
  0
LINE
  8
0
 10
52.5665
 20
-30.1255
 11
52.4632
 21
-30.1793
  0
LINE
  8
0
 10
52.4632
 20
-30.1793
 11
52.3572
 21
-30.2276
  0
LINE
  8
0
 10
52.3572
 20
-30.2276
 11
52.2488
 21
-30.2703
  0
LINE
  8
0
 10
52.2488
 20
-30.2703
 11
52.1383
 21
-30.3073
  0
LINE
  8
0
 10
52.1383
 20
-30.3073
 11
52.0261
 21
-30.3384
  0
LINE
  8
0
 10
52.0261
 20
-30.3384
 11
51.9124
 21
-30.3636
  0
LINE
  8
0
 10
51.9124
 20
-30.3636
 11
51.7975
 21
-30.3828
  0
LINE
  8
0
 10
51.7975
 20
-30.3828
 11
51.6817
 21
-30.396
  0
LINE
  8
0
 10
51.6817
 20
-30.396
 11
51.5654
 21
-30.4031
  0
LINE
  8
0
 10
51.5654
 20
-30.4031
 11
51.449
 21
-30.4041
  0
LINE
  8
0
 10
51.449
 20
-30.4041
 11
51.3326
 21
-30.3991
  0
ENDSEC
  0
SECTION
  2
OBJECTS
  0
DICTIONARY
  0
ENDSEC
  0
EOF
