<?xml version="1.0" standalone="no"?>
<!DOCTYPE svg PUBLIC "-//W3C//DTD SVG 1.1//EN" "http://www.w3.org/Graphics/SVG/1.1/DTD/svg11.dtd">
<svg width="6" height="5" viewBox="-4 -3 8 7" xmlns="http://www.w3.org/2000/svg" version="1.1">
<title>OpenSCAD Model</title>
<path d="
M 0.104691,2.99817 L 0.209259,2.99269 L 0.313583,2.98355 L 0.417511,2.97079 L 0.520935,2.95442 L 0.623734,2.93443
 L 0.725754,2.91087 L 0.826904,2.88377 L 0.927048,2.85316 L 1.02605,2.81908 L 1.12381,2.78154 L 1.2202,2.74063
 L 1.31511,2.69638 L 1.4084,2.64883 L 1.5,2.59807 L 1.58975,2.54414 L 1.67757,2.48711 L 1.76335,2.42705
 L 1.84697,2.36403 L 1.92836,2.29813 L 2.00739,2.22943 L 2.08397,2.158 L 2.158,2.08397 L 2.22943,2.00739
 L 2.29813,1.92836 L 2.36403,1.84697 L 2.42705,1.76335 L 2.48711,1.67757 L 2.54414,1.58975 L 2.59807,1.5
 L 2.64883,1.4084 L 2.69638,1.31511 L 2.74063,1.2202 L 2.78154,1.12381 L 2.81908,1.02605 L 2.85316,0.927048
 L 2.88377,0.826904 L 2.91087,0.725754 L 2.93443,0.623734 L 2.95442,0.520935 L 2.97079,0.417511 L 2.98355,0.313583
 L 2.99269,0.209259 L 2.99817,0.104691 L 3,-0 L 2.99817,-0.104691 L 2.99269,-0.209259 L 2.98355,-0.313583
 L 2.97079,-0.417511 L 2.95442,-0.520935 L 2.93443,-0.623734 L 2.91087,-0.725754 L 2.88377,-0.826904 L 2.85316,-0.927048
 L 2.81908,-1.02605 L 2.78154,-1.12381 L 2.74063,-1.2202 L 2.69638,-1.31511 L 2.64883,-1.4084 L 2.59805,-1.5
 L -2.59807,-1.49998 L -2.64883,-1.4084 L -2.69638,-1.31511 L -2.74063,-1.2202 L -2.78154,-1.12381 L -2.81908,-1.02605
 L -2.85316,-0.927048 L -2.88377,-0.826904 L -2.91087,-0.725754 L -2.93443,-0.623734 L -2.95442,-0.520935 L -2.97079,-0.417511
 L -2.98355,-0.313583 L -2.99269,-0.209259 L -2.99817,-0.104691 L -3,-0 L -2.99817,0.104691 L -2.99269,0.209259
 L -2.98355,0.313583 L -2.97079,0.417511 L -2.95442,0.520935 L -2.93443,0.623734 L -2.91087,0.725754 L -2.88377,0.826904
 L -2.85316,0.927048 L -2.81908,1.02605 L -2.78154,1.12381 L -2.74063,1.2202 L -2.69638,1.31511 L -2.64883,1.4084
 L -2.59807,1.5 L -2.54414,1.58975 L -2.48711,1.67757 L -2.42705,1.76335 L -2.36403,1.84697 L -2.29813,1.92836
 L -2.22943,2.00739 L -2.158,2.08397 L -2.08397,2.158 L -2.00739,2.22943 L -1.92836,2.29813 L -1.84697,2.36403
 L -1.76335,2.42705 L -1.67757,2.48711 L -1.58975,2.54414 L -1.5,2.59807 L -1.4084,2.64883 L -1.31511,2.69638
 L -1.2202,2.74063 L -1.12381,2.78154 L -1.02605,2.81908 L -0.927048,2.85316 L -0.826904,2.88377 L -0.725754,2.91087
 L -0.623734,2.93443 L -0.520935,2.95442 L -0.417511,2.97079 L -0.313583,2.98355 L -0.209259,2.99269 L -0.104691,2.99817
 L 0,3 z
" stroke="black" fill="lightgray" stroke-width="0.5"/></svg>
